<?xml version="1.0" encoding="UTF-8" standalone="no"?><!DOCTYPE svg PUBLIC "-//W3C//DTD SVG 1.1//EN" "http://www.w3.org/Graphics/SVG/1.1/DTD/svg11.dtd"><svg width="5152px" height="2789px" version="1.1" xmlns="http://www.w3.org/2000/svg" xmlns:xlink="http://www.w3.org/1999/xlink" xml:space="preserve" xmlns:serif="http://www.serif.com/" style="fill-rule:evenodd;clip-rule:evenodd;stroke-linecap:round;stroke-linejoin:round;stroke-miterlimit:2;"><g id="_0" serif:id="0" transform="matrix(1,0,0,1,-1145.66,3328.71)"><g id="CIRCLE" transform="matrix(-2,0,0,2,8966.88,2949.95)"><path d="M1524.39,-2908.61C1547.21,-2908.61 1565.73,-2927.14 1565.73,-2949.95C1565.73,-2972.77 1547.21,-2991.29 1524.39,-2991.29C1501.58,-2991.29 1483.06,-2972.77 1483.06,-2949.95C1483.06,-2927.14 1501.58,-2908.61 1524.39,-2908.61Z" style="fill:none;stroke:black;stroke-width:2.95px;"/></g><g id="CIRCLE1" serif:id="CIRCLE" transform="matrix(-2,0,0,2,8966.78,4981.28)"><path d="M1524.39,-2908.61C1547.21,-2908.61 1565.73,-2927.14 1565.73,-2949.95C1565.73,-2972.77 1547.21,-2991.29 1524.39,-2991.29C1501.58,-2991.29 1483.06,-2972.77 1483.06,-2949.95C1483.06,-2927.14 1501.58,-2908.61 1524.39,-2908.61Z" style="fill:none;stroke:black;stroke-width:2.95px;"/></g><g id="CIRCLE2" serif:id="CIRCLE" transform="matrix(-2,0,0,2,4573.18,4981.45)"><path d="M1524.39,-2908.61C1547.21,-2908.61 1565.73,-2927.14 1565.73,-2949.95C1565.73,-2972.77 1547.21,-2991.29 1524.39,-2991.29C1501.58,-2991.29 1483.06,-2972.77 1483.06,-2949.95C1483.06,-2927.14 1501.58,-2908.61 1524.39,-2908.61Z" style="fill:none;stroke:black;stroke-width:2.95px;"/></g><g id="CIRCLE3" serif:id="CIRCLE" transform="matrix(-2,0,0,2,4573.18,2949.95)"><path d="M1524.39,-2908.61C1547.21,-2908.61 1565.73,-2927.14 1565.73,-2949.95C1565.73,-2972.77 1547.21,-2991.29 1524.39,-2991.29C1501.58,-2991.29 1483.06,-2972.77 1483.06,-2949.95C1483.06,-2927.14 1501.58,-2908.61 1524.39,-2908.61Z" style="fill:none;stroke:black;stroke-width:2.95px;"/></g><g id="CIRCLE4" serif:id="CIRCLE" transform="matrix(-2,0,0,2,6590.27,2949.95)"><path d="M1524.39,-2908.61C1547.21,-2908.61 1565.73,-2927.14 1565.73,-2949.95C1565.73,-2972.77 1547.21,-2991.29 1524.39,-2991.29C1501.58,-2991.29 1483.06,-2972.77 1483.06,-2949.95C1483.06,-2927.14 1501.58,-2908.61 1524.39,-2908.61Z" style="fill:none;stroke:black;stroke-width:2.95px;"/></g><g id="CIRCLE5" serif:id="CIRCLE" transform="matrix(-1.42857,0,0,1.42857,7824.53,1545.2)"><path d="M1524.39,-2908.61C1547.21,-2908.61 1565.73,-2927.14 1565.73,-2949.95C1565.73,-2972.77 1547.21,-2991.29 1524.39,-2991.29C1501.58,-2991.29 1483.06,-2972.77 1483.06,-2949.95C1483.06,-2927.14 1501.58,-2908.61 1524.39,-2908.61Z" style="fill:none;stroke:black;stroke-width:4.13px;"/></g><g id="CIRCLE6" serif:id="CIRCLE" transform="matrix(-2,0,0,2,6949.77,4981.28)"><path d="M1524.39,-2908.61C1547.21,-2908.61 1565.73,-2927.14 1565.73,-2949.95C1565.73,-2972.77 1547.21,-2991.29 1524.39,-2991.29C1501.58,-2991.29 1483.06,-2972.77 1483.06,-2949.95C1483.06,-2927.14 1501.58,-2908.61 1524.39,-2908.61Z" style="fill:none;stroke:black;stroke-width:2.95px;"/></g><g id="LINE" transform="matrix(1,0,0,1,1.63709e-11,23.622)"><path d="M1406.38,-2973.5L1406.39,-2973.5C1406.39,-3004.83 1418.83,-3034.87 1440.98,-3057.02C1463.13,-3079.17 1493.17,-3091.62 1524.5,-3091.61C1524.5,-3091.61 5917.96,-3091.38 5917.96,-3091.38C5983.19,-3091.37 6036.07,-3038.49 6036.07,-2973.27L6036.06,-942.244C6036.06,-877.013 5983.18,-824.133 5917.95,-824.133L1524.49,-824.133C1459.26,-824.133 1406.38,-877.013 1406.38,-942.244L1406.38,-2973.5Z" style="fill:none;stroke:black;stroke-width:5.91px;"/></g></g></svg>