<?xml version="1.0" encoding="UTF-8" standalone="no"?><!DOCTYPE svg PUBLIC "-//W3C//DTD SVG 1.1//EN" "http://www.w3.org/Graphics/SVG/1.1/DTD/svg11.dtd"><svg width="4164px" height="2114px" version="1.1" xmlns="http://www.w3.org/2000/svg" xmlns:xlink="http://www.w3.org/1999/xlink" xml:space="preserve" xmlns:serif="http://www.serif.com/" style="fill-rule:evenodd;clip-rule:evenodd;stroke-linecap:round;stroke-linejoin:round;stroke-miterlimit:2;"><g id="_0" serif:id="0" transform="matrix(1,0,0,1,-1719.86,3937.92)"><g id="CIRCLE" transform="matrix(2,0,0,2,-2053.82,3601.6)"><path d="M2053.82,-3560.26C2076.63,-3560.26 2095.16,-3578.78 2095.16,-3601.6C2095.16,-3624.41 2076.63,-3642.94 2053.82,-3642.94C2031,-3642.94 2012.48,-3624.41 2012.48,-3601.6C2012.48,-3578.78 2031,-3560.26 2053.82,-3560.26Z" style="fill:none;stroke:black;stroke-width:2.95px;"/></g><g id="CIRCLE1" serif:id="CIRCLE" transform="matrix(2,0,0,2,-2051.46,5088.54)"><path d="M2053.82,-3560.26C2076.63,-3560.26 2095.16,-3578.78 2095.16,-3601.6C2095.16,-3624.41 2076.63,-3642.94 2053.82,-3642.94C2031,-3642.94 2012.48,-3624.41 2012.48,-3601.6C2012.48,-3578.78 2031,-3560.26 2053.82,-3560.26Z" style="fill:none;stroke:black;stroke-width:2.95px;"/></g><g id="CIRCLE2" serif:id="CIRCLE" transform="matrix(2,0,0,2,1442.25,5088.54)"><path d="M2053.82,-3560.26C2076.63,-3560.26 2095.16,-3578.78 2095.16,-3601.6C2095.16,-3624.41 2076.63,-3642.94 2053.82,-3642.94C2031,-3642.94 2012.48,-3624.41 2012.48,-3601.6C2012.48,-3578.78 2031,-3560.26 2053.82,-3560.26Z" style="fill:none;stroke:black;stroke-width:2.95px;"/></g><g id="CIRCLE3" serif:id="CIRCLE" transform="matrix(2,0,0,2,1442.25,3601.6)"><path d="M2053.82,-3560.26C2076.63,-3560.26 2095.16,-3578.78 2095.16,-3601.6C2095.16,-3624.41 2076.63,-3642.94 2053.82,-3642.94C2031,-3642.94 2012.48,-3624.41 2012.48,-3601.6C2012.48,-3578.78 2031,-3560.26 2053.82,-3560.26Z" style="fill:none;stroke:black;stroke-width:2.95px;"/></g><g transform="matrix(1,0,0,1,1719.86,-3937.92)"><path d="M3948.13,335.506L3948.13,1821.37C3948.13,1887.41 3894.51,1941.03 3828.47,1941.03L335.506,1941.03C269.464,1941.03 215.846,1887.41 215.846,1821.37L215.846,335.506C215.846,269.464 269.464,215.846 335.506,215.846L3828.47,215.846C3894.51,215.846 3948.13,269.464 3948.13,335.506Z" style="fill:white;fill-opacity:0;stroke:black;stroke-width:5.83px;stroke-miterlimit:1.5;"/></g><g transform="matrix(0.830132,0,0,1.42857,1943.6,-4420.01)"><rect x="1138.29" y="654.944" width="199.19" height="99.213" style="fill:white;fill-opacity:0;stroke:black;stroke-width:4.99px;stroke-miterlimit:1.5;"/></g></g></svg>