<?xml version="1.0" encoding="UTF-8" standalone="no"?><!DOCTYPE svg PUBLIC "-//W3C//DTD SVG 1.1//EN" "http://www.w3.org/Graphics/SVG/1.1/DTD/svg11.dtd"><svg width="7800px" height="5437px" version="1.1" xmlns="http://www.w3.org/2000/svg" xmlns:xlink="http://www.w3.org/1999/xlink" xml:space="preserve" xmlns:serif="http://www.serif.com/" style="fill-rule:evenodd;clip-rule:evenodd;stroke-linecap:round;stroke-linejoin:round;stroke-miterlimit:2;"><g id="_0" serif:id="0" transform="matrix(1,0,0,1,-4533.69,9051.91)"><g id="LINE" transform="matrix(1,0,0,0.95801,46.4764,-266.67)"><path d="M4914.78,-4065.78C4914.78,-3997.93 4967.47,-3942.93 5032.47,-3942.93C5032.47,-3942.93 11739.6,-3942.93 11739.6,-3942.93C11804.6,-3942.93 11857.3,-3997.93 11857.3,-4065.78L11857.3,-8601.14C11857.3,-8668.99 11804.6,-8724 11739.6,-8724C11739.6,-8724 5032.47,-8724 5032.47,-8724C4967.47,-8724 4914.78,-8668.99 4914.78,-8601.14L4914.78,-4065.71" style="fill:none;stroke:black;stroke-width:6.03px;"/></g><g id="CIRCLE" transform="matrix(0.39801,0,0,0.39801,7141.19,-5329.87)"><path d="M1762.61,-6913.36C1819.5,-6913.36 1871.74,-6933.41 1912.64,-6966.83C1965.95,-7010.38 2000.01,-7076.62 2000.01,-7150.77C2000.01,-7281.79 1893.64,-7388.17 1762.61,-7388.17C1631.59,-7388.17 1525.21,-7281.79 1525.21,-7150.77C1525.21,-7019.74 1631.59,-6913.36 1762.61,-6913.36Z" style="fill:none;stroke:black;stroke-width:14.84px;"/></g><g id="CIRCLE1" serif:id="CIRCLE" transform="matrix(0.39801,0,0,0.39801,4377.41,-5660.58)"><path d="M1762.61,-6913.36C1819.5,-6913.36 1871.74,-6933.41 1912.64,-6966.83C1965.95,-7010.38 2000.01,-7076.62 2000.01,-7150.77C2000.01,-7281.79 1893.64,-7388.17 1762.61,-7388.17C1631.59,-7388.17 1525.21,-7281.79 1525.21,-7150.77C1525.21,-7019.74 1631.59,-6913.36 1762.61,-6913.36Z" style="fill:none;stroke:black;stroke-width:14.84px;"/></g><g id="CIRCLE2" serif:id="CIRCLE" transform="matrix(0.39801,0,0,0.39801,4377.41,-3510.97)"><path d="M1762.61,-6913.36C1819.5,-6913.36 1871.74,-6933.41 1912.64,-6966.83C1965.95,-7010.38 2000.01,-7076.62 2000.01,-7150.77C2000.01,-7281.79 1893.64,-7388.17 1762.61,-7388.17C1631.59,-7388.17 1525.21,-7281.79 1525.21,-7150.77C1525.21,-7019.74 1631.59,-6913.36 1762.61,-6913.36Z" style="fill:none;stroke:black;stroke-width:14.84px;"/></g><g id="CIRCLE3" serif:id="CIRCLE" transform="matrix(0.39801,0,0,0.39801,4377.41,-1361.36)"><path d="M1762.61,-6913.36C1819.5,-6913.36 1871.74,-6933.41 1912.64,-6966.83C1965.95,-7010.38 2000.01,-7076.62 2000.01,-7150.77C2000.01,-7281.79 1893.64,-7388.17 1762.61,-7388.17C1631.59,-7388.17 1525.21,-7281.79 1525.21,-7150.77C1525.21,-7019.74 1631.59,-6913.36 1762.61,-6913.36Z" style="fill:none;stroke:black;stroke-width:14.84px;"/></g><g id="CIRCLE4" serif:id="CIRCLE" transform="matrix(0.39801,0,0,0.39801,7731.74,-1361.36)"><path d="M1762.61,-6913.36C1819.5,-6913.36 1871.74,-6933.41 1912.64,-6966.83C1965.95,-7010.38 2000.01,-7076.62 2000.01,-7150.77C2000.01,-7281.79 1893.64,-7388.17 1762.61,-7388.17C1631.59,-7388.17 1525.21,-7281.79 1525.21,-7150.77C1525.21,-7019.74 1631.59,-6913.36 1762.61,-6913.36Z" style="fill:none;stroke:black;stroke-width:14.84px;"/></g><g id="CIRCLE5" serif:id="CIRCLE" transform="matrix(0.39801,0,0,0.39801,11086.1,-1361.36)"><path d="M1762.61,-6913.36C1819.5,-6913.36 1871.74,-6933.41 1912.64,-6966.83C1965.95,-7010.38 2000.01,-7076.62 2000.01,-7150.77C2000.01,-7281.79 1893.64,-7388.17 1762.61,-7388.17C1631.59,-7388.17 1525.21,-7281.79 1525.21,-7150.77C1525.21,-7019.74 1631.59,-6913.36 1762.61,-6913.36Z" style="fill:none;stroke:black;stroke-width:14.84px;"/></g><g id="CIRCLE6" serif:id="CIRCLE" transform="matrix(0.39801,0,0,0.39801,11086.1,-3510.97)"><path d="M1762.61,-6913.36C1819.5,-6913.36 1871.74,-6933.41 1912.64,-6966.83C1965.95,-7010.38 2000.01,-7076.62 2000.01,-7150.77C2000.01,-7281.79 1893.64,-7388.17 1762.61,-7388.17C1631.59,-7388.17 1525.21,-7281.79 1525.21,-7150.77C1525.21,-7019.74 1631.59,-6913.36 1762.61,-6913.36Z" style="fill:none;stroke:black;stroke-width:14.84px;"/></g><g id="CIRCLE7" serif:id="CIRCLE" transform="matrix(0.39801,0,0,0.39801,11086.1,-5660.58)"><path d="M1762.61,-6913.36C1819.5,-6913.36 1871.74,-6933.41 1912.64,-6966.83C1965.95,-7010.38 2000.01,-7076.62 2000.01,-7150.77C2000.01,-7281.79 1893.64,-7388.17 1762.61,-7388.17C1631.59,-7388.17 1525.21,-7281.79 1525.21,-7150.77C1525.21,-7019.74 1631.59,-6913.36 1762.61,-6913.36Z" style="fill:none;stroke:black;stroke-width:14.84px;"/></g><g id="CIRCLE8" serif:id="CIRCLE" transform="matrix(0.39801,0,0,0.39801,8322.3,-5329.87)"><path d="M1762.61,-6913.36C1819.5,-6913.36 1871.74,-6933.41 1912.64,-6966.83C1965.95,-7010.38 2000.01,-7076.62 2000.01,-7150.77C2000.01,-7281.79 1893.64,-7388.17 1762.61,-7388.17C1631.59,-7388.17 1525.21,-7281.79 1525.21,-7150.77C1525.21,-7019.74 1631.59,-6913.36 1762.61,-6913.36Z" style="fill:none;stroke:black;stroke-width:14.84px;"/></g><g id="CIRCLE9" serif:id="CIRCLE" transform="matrix(0.248756,0,0,0.248756,7994.82,-6496.36)"><path d="M1762.61,-6913.36C1893.64,-6913.36 2000.01,-7019.74 2000.01,-7150.77C2000.01,-7281.79 1893.64,-7388.17 1762.61,-7388.17C1631.59,-7388.17 1525.21,-7281.79 1525.21,-7150.77C1525.21,-7019.74 1631.59,-6913.36 1762.61,-6913.36Z" style="fill:none;stroke:black;stroke-width:23.74px;"/></g></g></svg>