<?xml version="1.0" encoding="UTF-8" standalone="no"?>
<!DOCTYPE svg PUBLIC "-//W3C//DTD SVG 1.1//EN" "http://www.w3.org/Graphics/SVG/1.1/DTD/svg11.dtd">
<svg width="100%" height="100%" viewBox="0 0 7800 5437" version="1.1" xmlns="http://www.w3.org/2000/svg" xmlns:xlink="http://www.w3.org/1999/xlink" xml:space="preserve" xmlns:serif="http://www.serif.com/" style="fill-rule:evenodd;clip-rule:evenodd;stroke-linecap:round;stroke-linejoin:round;stroke-miterlimit:2;">
    <g id="_0" serif:id="0" transform="matrix(1,0,0,1,-4533.69,9051.91)">
        <g id="LINE" transform="matrix(0.98673,0,0,0.938742,157.758,-388.709)">
            <path d="M11786.3,-6445.88L11857.3,-6445.88L11857.3,-8559.61C11857.3,-8559.61 11786.3,-8559.61 11786.3,-8559.61C11740,-8559.61 11702.5,-8599.08 11702.5,-8647.69L11702.5,-8724C11196.1,-8724 5671.5,-8724 5083.13,-8724C5083.13,-8724 5083.13,-8647.69 5083.13,-8647.69C5083.13,-8616.25 5069.4,-8588.16 5047.89,-8569.7C5031.39,-8555.53 5010.32,-8547.03 4987.38,-8547.03L4914.78,-8547.03L4914.78,-6445.88C4914.78,-6445.88 4987.38,-6445.88 4987.38,-6445.88C5033.62,-6445.88 5071.16,-6406.41 5071.16,-6357.81C5071.16,-6309.2 5033.62,-6269.73 4987.38,-6269.73C4987.38,-6269.73 4914.78,-6269.73 4914.78,-6269.73L4914.78,-4156L4987.38,-4156C5033.62,-4156 5071.16,-4116.53 5071.16,-4067.93L5071.16,-3942.93C5591.45,-3942.93 11192.4,-3942.93 11702.5,-3942.93L11702.5,-4067.93C11702.5,-4116.53 11740,-4156 11786.3,-4156L11857.3,-4156C11857.3,-4439.33 11857.3,-5347.5 11857.3,-6269.73C11857.3,-6269.73 11786.3,-6269.73 11786.3,-6269.73C11740,-6269.73 11702.5,-6309.2 11702.5,-6357.81C11702.5,-6406.41 11740,-6445.88 11786.3,-6445.88" style="fill:none;stroke:black;stroke-width:6.13px;"/>
        </g>
        <g id="CIRCLE" transform="matrix(0.348259,0,0,0.348259,7228.89,-5685.63)">
            <path d="M1762.61,-6913.36C1819.5,-6913.36 1871.74,-6933.41 1912.64,-6966.83C1965.95,-7010.38 2000.01,-7076.62 2000.01,-7150.77C2000.01,-7281.79 1893.64,-7388.17 1762.61,-7388.17C1631.59,-7388.17 1525.21,-7281.79 1525.21,-7150.77C1525.21,-7019.74 1631.59,-6913.36 1762.61,-6913.36Z" style="fill:none;stroke:black;stroke-width:16.96px;"/>
        </g>
        <g id="CIRCLE1" serif:id="CIRCLE" transform="matrix(0.348259,0,0,0.348259,7819.44,-1717.12)">
            <path d="M1762.61,-6913.36C1819.5,-6913.36 1871.74,-6933.41 1912.64,-6966.83C1965.95,-7010.38 2000.01,-7076.62 2000.01,-7150.77C2000.01,-7281.79 1893.64,-7388.17 1762.61,-7388.17C1631.59,-7388.17 1525.21,-7281.79 1525.21,-7150.77C1525.21,-7019.74 1631.59,-6913.36 1762.61,-6913.36Z" style="fill:none;stroke:black;stroke-width:16.96px;"/>
        </g>
        <g id="CIRCLE2" serif:id="CIRCLE" transform="matrix(0.348259,0,0,0.348259,8409.99,-5685.63)">
            <path d="M1762.61,-6913.36C1819.5,-6913.36 1871.74,-6933.41 1912.64,-6966.83C1965.95,-7010.38 2000.01,-7076.62 2000.01,-7150.77C2000.01,-7281.79 1893.64,-7388.17 1762.61,-7388.17C1631.59,-7388.17 1525.21,-7281.79 1525.21,-7150.77C1525.21,-7019.74 1631.59,-6913.36 1762.61,-6913.36Z" style="fill:none;stroke:black;stroke-width:16.96px;"/>
        </g>
        <g id="CIRCLE3" serif:id="CIRCLE" transform="matrix(0.248756,0,0,0.248756,7994.82,-6496.36)">
            <path d="M1762.61,-6913.36C1893.64,-6913.36 2000.01,-7019.74 2000.01,-7150.77C2000.01,-7281.79 1893.64,-7388.17 1762.61,-7388.17C1631.59,-7388.17 1525.21,-7281.79 1525.21,-7150.77C1525.21,-7019.74 1631.59,-6913.36 1762.61,-6913.36Z" style="fill:none;stroke:black;stroke-width:23.74px;"/>
        </g>
    </g>
</svg>
