<?xml version="1.0" encoding="UTF-8" standalone="no"?><!DOCTYPE svg PUBLIC "-//W3C//DTD SVG 1.1//EN" "http://www.w3.org/Graphics/SVG/1.1/DTD/svg11.dtd"><svg width="4164px" height="2114px" version="1.1" xmlns="http://www.w3.org/2000/svg" xmlns:xlink="http://www.w3.org/1999/xlink" xml:space="preserve" xmlns:serif="http://www.serif.com/" style="fill-rule:evenodd;clip-rule:evenodd;stroke-linecap:round;stroke-linejoin:round;stroke-miterlimit:1.5;"><g id="_0" serif:id="0" transform="matrix(1,0,0,1,-1719.86,3937.92)"><g transform="matrix(1,0,0,1,1719.86,-3937.92)"><path d="M3948.13,329.808L3948.13,1783.78C3948.13,1846.67 3897.07,1897.74 3834.17,1897.74L329.808,1897.74C266.911,1897.74 215.846,1846.67 215.846,1783.78L215.846,329.808C215.846,266.911 266.911,215.846 329.808,215.846L3834.17,215.846C3897.07,215.846 3948.13,266.911 3948.13,329.808Z" style="fill:white;fill-opacity:0;stroke:black;stroke-width:5.83px;"/></g><g id="CIRCLE" transform="matrix(2,0,0,2,-2053.82,3601.6)"><path d="M2053.82,-3560.26C2076.63,-3560.26 2095.16,-3578.78 2095.16,-3601.6C2095.16,-3624.41 2076.63,-3642.94 2053.82,-3642.94C2031,-3642.94 2012.48,-3624.41 2012.48,-3601.6C2012.48,-3578.78 2031,-3560.26 2053.82,-3560.26Z" style="fill:none;stroke:black;stroke-width:2.95px;stroke-miterlimit:2;"/></g><g id="CIRCLE1" serif:id="CIRCLE" transform="matrix(2,0,0,2,-2051.46,5042.54)"><path d="M2053.82,-3560.26C2076.63,-3560.26 2095.16,-3578.78 2095.16,-3601.6C2095.16,-3624.41 2076.63,-3642.94 2053.82,-3642.94C2031,-3642.94 2012.48,-3624.41 2012.48,-3601.6C2012.48,-3578.78 2031,-3560.26 2053.82,-3560.26Z" style="fill:none;stroke:black;stroke-width:2.95px;stroke-miterlimit:2;"/></g><g id="CIRCLE2" serif:id="CIRCLE" transform="matrix(2,0,0,2,1442.25,5042.54)"><path d="M2053.82,-3560.26C2076.63,-3560.26 2095.16,-3578.78 2095.16,-3601.6C2095.16,-3624.41 2076.63,-3642.94 2053.82,-3642.94C2031,-3642.94 2012.48,-3624.41 2012.48,-3601.6C2012.48,-3578.78 2031,-3560.26 2053.82,-3560.26Z" style="fill:none;stroke:black;stroke-width:2.95px;stroke-miterlimit:2;"/></g><g id="CIRCLE3" serif:id="CIRCLE" transform="matrix(2,0,0,2,1442.25,3601.6)"><path d="M2053.82,-3560.26C2076.63,-3560.26 2095.16,-3578.78 2095.16,-3601.6C2095.16,-3624.41 2076.63,-3642.94 2053.82,-3642.94C2031,-3642.94 2012.48,-3624.41 2012.48,-3601.6C2012.48,-3578.78 2031,-3560.26 2053.82,-3560.26Z" style="fill:none;stroke:black;stroke-width:2.95px;stroke-miterlimit:2;"/></g><g id="CIRCLE4" serif:id="CIRCLE" transform="matrix(1.42857,0,0,1.42857,37.1778,1707.36)"><path d="M2053.82,-3560.26C2076.63,-3560.26 2095.16,-3578.78 2095.16,-3601.6C2095.16,-3624.41 2076.63,-3642.94 2053.82,-3642.94C2031,-3642.94 2012.48,-3624.41 2012.48,-3601.6C2012.48,-3578.78 2031,-3560.26 2053.82,-3560.26Z" style="fill:none;stroke:black;stroke-width:4.13px;stroke-miterlimit:2;"/></g></g></svg>