<?xml version="1.0" encoding="UTF-8" standalone="no"?>
<!DOCTYPE svg PUBLIC "-//W3C//DTD SVG 1.1//EN" "http://www.w3.org/Graphics/SVG/1.1/DTD/svg11.dtd">
<svg width="100%" height="100%" viewBox="0 0 298 298" version="1.1" xmlns="http://www.w3.org/2000/svg" xmlns:xlink="http://www.w3.org/1999/xlink" xml:space="preserve" xmlns:serif="http://www.serif.com/" style="fill-rule:evenodd;clip-rule:evenodd;stroke-linecap:round;stroke-linejoin:round;stroke-miterlimit:1.5;">
    <path d="M279.282,255.232L269.405,255.232C261.583,255.232 255.232,261.583 255.232,269.405L255.232,279.282C255.232,282.435 252.672,284.995 249.519,284.995L48.347,284.995C45.193,284.995 42.633,282.435 42.633,279.282L42.633,269.405C42.633,261.583 36.283,255.232 28.46,255.232L18.583,255.232C15.429,255.232 12.869,252.672 12.869,249.519L12.869,48.347C12.869,45.193 15.429,42.633 18.583,42.633L28.46,42.633C36.283,42.633 42.633,36.283 42.633,28.46L42.633,18.583C42.633,15.429 45.193,12.869 48.347,12.869L249.519,12.869C252.672,12.869 255.232,15.429 255.232,18.583C255.232,18.583 255.232,28.46 255.232,28.46C255.232,36.283 261.583,42.633 269.405,42.633L279.282,42.633C282.435,42.633 284.995,45.193 284.995,48.347L284.995,249.519C284.995,252.672 282.435,255.232 279.282,255.232" style="fill:none;stroke:black;stroke-width:1px;"/>
    <g id="gge21096">
    </g>
    <g id="gge21099">
    </g>
    <g id="gge21102">
    </g>
    <g id="gge21105">
    </g>
</svg>
