<?xml version="1.0" encoding="UTF-8"?>
<svg id="Layer_1" xmlns="http://www.w3.org/2000/svg" version="1.1" viewBox="0 0 965.25 542.99">
  <!-- Generator: Adobe Illustrator 29.5.1, SVG Export Plug-In . SVG Version: 2.1.0 Build 141)  -->
  <path d="M734.21,233.78c-1.76,3.36-11.42,16.72-10.84,18.28.32.45,4.49,1.07,10,.71,26.33-2.16,52-3.19,77.99-8.73,8.03-1.71,26.44-4.18,25.99-14.01-.33-5.43-20.63-8.76-28.22-9.45-40.14-3.64-136.18,7.46-147.76,8.98,1.11-3.32,5.78-10.16,17.63-13.92,13.47-3.85,29.89-4.65,45.31-6.26,38.01-3.97,76.4-6.96,114.55,1.43,11.05,2.43,41.57,11.9,25.46,30.68-6.25,7.28-19.21,10.5-27.55,12.84-20.52,5.77-42.7,8.3-63.65,9.63-3.34,3.75,12.36,12.17,14.29,13.29,29.17,16.85,60.04,30.26,90.58,42.58-.98,2.8-3.59,4.61-5.14,5.37-17.13,8.59-45.24-2.62-61.88-10.78-30.71-15.06-91.22-56.59-91.22-56.59-11.6,18.79-26.39,54.28-40.53,56.99-5.64,1.16-10.63,1.74-17.85.69l42.91-77.96c.74-1.18,1.42-2.2,2.67-3.67l27.26-.09Z"/>
  <path d="M331.06,207.85c-2.3,2.79-10.7,14.77-12.2,15.86-8.14.78-29.65,2.4-39.9,3.89-44.91,6.55-94.94,19.43-136.29,42.39-4.8,2.67-10.69,5.52-17.53,11.99-2.99,2.83-4.4,6.54-3.38,8.88,1.26,2.76,6.53,4.65,10.89,5.77,7.31,1.65,11.86,2.23,24.12,1.73,27.55-1.67,65.39-3.52,91.16-14.99,10.39-5.02,11.64-5.37,20.41-13.34,1.88-1.71,5.1-5.26,5.26-6.51-21.72-.2-73.25,9.04-73.25,9.04.79-2.73,2.12-4.26,3.5-5.52,8.41-7.1,15.36-9.21,23.81-11.17,24.47-5.67,52.45-5.53,77.28-6.1-2.79,5.05-6.88,9.84-10.49,14-31.78,36.61-53.43,44.24-103.35,49.54-23.07,2.45-80.91,9.4-99.09-7.96-8.33-7.22-3.52-16.41-1.8-18.85,11.62-16.54,40.34-31.08,53.2-37.09,59.93-28,123.93-38.76,187.65-41.57Z"/>
  <path d="M594.31,255.33s10.74,3.82,13.35,6.94c5.09,6.09.91,15.72-4.72,22.13-29.14,33.11-119.03,35.35-157.43,33.36-8.42-.44-13.28-.56-27.04-1.77l16.83-17.63c20.65,2.28,33.1,3.02,49.91,2.21,19.81-.95,56.92-4.45,74.69-14.09,28.39-15.4-9.05-23.61-21.45-24.73-8.79-.79-15.99-1.02-26.67-1.03l9.75-11.45c30.34-1.82,44.72-2.25,62.13-8.88,7.13-2.72,10.73-5.31,10.8-7.72.17-6.26-11.04-9.12-16.41-9.65-15.33-1.52-37.86-.97-53.45-.01-10.91.8-11.63,1.13-19.2,2.49,7.2-8.86,8.18-9.95,12.47-15.02,33.9-7.44,68.25-7.23,92.42.07,7.93,2.39,17.33,5.66,18.1,16.12.89,12.67-25.49,25.24-34.08,28.65Z"/>
  <path d="M338.34,222.86l12.19-15.88c45.79-2.23,82.95-1.31,142.79-.69-4.34,7.92-15.65,16.29-20.24,17.04-4.01.09-40.13-.78-54.9-.68-7.11,11.16-58.61,81.39-70.16,89.96-5.57,3.6-17.41,2.32-23.97,2.13,11.53-14.76,24.42-33.24,35.54-48.71,7.37-10.26,31.69-43.76,31.69-43.76-25.39-1.06-52.95.58-52.95.58Z"/>
</svg>