0
SECTION
2
HEADER
9
$INSUNITS
70
4
9
$ACADVER
1
AC1014
9
$HANDSEED
5
FFFF
0
ENDSEC
0
SECTION
2
TABLES
0
TABLE
2
VPORT
5
8
100
AcDbSymbolTable
0
ENDTAB
0
TABLE
2
LTYPE
5
5
100
AcDbSymbolTable
0
LTYPE
5
14
100
AcDbSymbolTableRecord
100
AcDbLinetypeTableRecord
2
BYBLOCK
70
0
0
LTYPE
5
15
100
AcDbSymbolTableRecord
100
AcDbLinetypeTableRecord
2
BYLAYER
70
0
0
LTYPE
5
16
100
AcDbSymbolTableRecord
100
AcDbLinetypeTableRecord
2
DASHED
70
0
3
Dashed __ __ __ __ __ __ __ __ __ __ __ __ __ _
72
65
73
2
40
0.75
49
0.5
74
0
49
-0.25
74
0
0
ENDTAB
0
TABLE
2
LAYER
5
2
100
AcDbSymbolTable
70
2
0
LAYER
5
50
100
AcDbSymbolTableRecord
100
AcDbLayerTableRecord
2
0
70
0
62
7
6
CONTINUOUS
0
ENDTAB
0
TABLE
2
STYLE
5
3
100
AcDbSymbolTable
70
1
0
STYLE
5
11
100
AcDbSymbolTableRecord
100
AcDbTextStyleTableRecord
2
STANDARD
70
0
0
ENDTAB
0
TABLE
2
VIEW
5
6
100
AcDbSymbolTable
70
0
0
ENDTAB
0
TABLE
2
UCS
5
7
100
AcDbSymbolTable
70
0
0
ENDTAB
0
TABLE
2
APPID
5
9
100
AcDbSymbolTable
70
2
0
APPID
5
12
100
AcDbSymbolTableRecord
100
AcDbRegAppTableRecord
2
ACAD
70
0
0
ENDTAB
0
TABLE
2
DIMSTYLE
5
A
100
AcDbSymbolTable
70
1
0
ENDTAB
0
TABLE
2
BLOCK_RECORD
5
1
100
AcDbSymbolTable
70
1
0
BLOCK_RECORD
5
1F
100
AcDbSymbolTableRecord
100
AcDbBlockTableRecord
2
*MODEL_SPACE
0
BLOCK_RECORD
5
1B
100
AcDbSymbolTableRecord
100
AcDbBlockTableRecord
2
*PAPER_SPACE
0
ENDTAB
0
ENDSEC
0
SECTION
2
BLOCKS
0
BLOCK
5
20
100
AcDbEntity
100
AcDbBlockBegin
2
*MODEL_SPACE
0
ENDBLK
5
21
100
AcDbEntity
100
AcDbBlockEnd
0
BLOCK
5
1C
100
AcDbEntity
100
AcDbBlockBegin
2
*PAPER_SPACE
0
ENDBLK
5
1D
100
AcDbEntity
100
AcDbBlockEnd
0
ENDSEC
0
SECTION
2
ENTITIES
0
LWPOLYLINE
5
100
100
AcDbEntity
8
0
100
AcDbPolyline
90
63
70
1
43
0.0
10
32.741786858390469
20
-6.327838828781057
10
32.741786858390469
20
6.3229606159192429
42
0.41421356237305729
10
31.741786858386686
20
7.3229606159228986
10
30.977462861821362
20
7.3229606159236056
10
25.624261836308186
20
7.3229606159236074
42
-0.41421356237309537
10
24.624261836308182
20
8.3229606159236091
10
24.624261836308182
20
19.006077439100718
42
-0.41421356237309243
10
25.37426183630819
20
19.756077439100718
10
28.949407188576078
20
19.756077439100721
10
28.949407188576078
20
25.162216416220247
10
29.304392215220677
20
25.162216416220247
10
28.339425440996024
20
35.694299226436442
10
25.201916455722738
20
36.624532020653163
10
7.1448230814126568
20
36.624532020653163
10
6.6457704552799264
20
37.095631816905048
10
-0.84788735784529723
20
37.095631816905069
10
-0.61159814932604817
20
37.095631816905069
42
-0.32296909322359468
10
-2.4144145440082228
20
38.395754290183852
10
-2.5115981493260451
20
38.395754290183852
10
-7.6653446122643842
20
38.395754290183866
42
-0.31410950738956134
10
-8.4159073388185757
20
38.918886824584291
10
-8.4653446122643814
20
38.918886824584291
10
-15.091408003689438
20
38.918886824584305
10
-19.581250935156312
20
38.913366484741147
42
-0.34587668566462998
10
-20.651065045387682
20
39.75185137214924
10
-20.682282651134077
20
39.751812989560932
10
-27.533652042813554
20
39.743389111930817
10
-27.510390524044585
20
20.824161566856837
10
-27.510390524044585
20
20.454710771380384
10
-23.972060218779959
20
17.007822451987053
10
-23.972060218779959
20
10.155781090037376
42
-0.41421356237309159
10
-24.722060218779962
20
9.4057810900373759
10
-30.015919189771012
20
9.4057810900373759
10
-30.015919189771012
20
7.7712898553885594
42
-0.41421356237309076
10
-30.765919189771012
20
7.0212898553885594
10
-31.715754525362243
20
7.0212898553885594
10
-31.715754525362243
20
3.1730515262028547
10
-31.715754525362243
20
-7.0731781355554046
10
-31.21870154156014
20
-7.0731781355554046
42
-0.41421356237309531
10
-29.968701541560137
20
-8.3231781355554109
10
-29.968701541560137
20
-9.4340605460987792
10
-25.245669042885392
20
-9.4340605460987792
42
-0.41421356237309293
10
-23.995669042885392
20
-10.684060546098779
10
-23.995669042885392
20
-16.941666611626722
10
-27.513383834595018
20
-20.648251996179823
10
-27.513383834595018
20
-39.700573049264882
10
-20.855695436862689
20
-39.700573049264882
10
-20.804672832800453
20
-39.700573049264882
42
-0.3230799197586548
10
-19.855695436862689
20
-39.015917150207301
10
-15.614536485456394
20
-39.015917150207301
10
-1.897809680199376
20
-39.015917150207301
10
0.061722720551626989
20
-37.363299462826937
10
5.5861875612231318
20
-37.363299462826937
10
6.9892253926540615
20
-36.180014544752666
10
18.594649643317148
20
-36.395337674504162
10
20.270876154802949
20
-36.771657003789798
10
25.441645188059432
20
-36.867593709541794
10
27.093826321273312
20
-36.395337674504162
10
28.063530939659383
20
-36.118159313711558
10
30.129061431712753
20
-15.036360127210489
10
30.765246846989672
20
-8.3838014493917985
42
-0.32447432184312947
10
31.542055583133717
20
-7.5031939458752186
10
31.71753772082505
20
-7.4709428138156353
42
0.38247411455861785
0
CIRCLE
5
101
100
AcDbEntity
8
0
100
AcDbCircle
10
10.364167283298382
20
22.793894226245527
30
0
40
1.2913019571548356
210
0
220
0
230
1
0
CIRCLE
5
102
100
AcDbEntity
8
0
100
AcDbCircle
10
8.5708837781560874
20
14.508030436180576
30
0
40
1.0086703843917486
210
0
220
0
230
1
0
CIRCLE
5
103
100
AcDbEntity
8
0
100
AcDbCircle
10
-5.5328460208368027
20
12.892359809476961
30
0
40
1.1088790677279377
210
0
220
0
230
1
0
CIRCLE
5
104
100
AcDbEntity
8
0
100
AcDbCircle
10
-4.5962719535810317
20
35.749305625370233
30
0
40
1.2458396201766735
210
0
220
0
230
1
0
CIRCLE
5
105
100
AcDbEntity
8
0
100
AcDbCircle
10
10.254936291292855
20
-30.396668677651885
30
0
40
1.3064914978746855
210
0
220
0
230
1
0
LINE
5
106
100
AcDbEntity
8
0
100
AcDbLine
10
9.5801990191661304
20
32.706941860638509
30
0
11
9.5975416404912686
21
31.986906650756769
31
0
0
LINE
5
107
100
AcDbEntity
8
0
100
AcDbLine
10
7.4959717792598006
20
32.802703808478448
30
0
11
7.5095170643676088
21
31.945268768949028
31
0
0
ARC
5
108
100
AcDbEntity
8
0
100
AcDbCircle
10
8.5536155954538025
20
31.961762860783637
30
0
40
1.0442288052346544
210
0
220
0
230
1
100
AcDbArc
50
-179.09494820844785
51
1.3797477010034433
0
ARC
5
109
100
AcDbEntity
8
0
100
AcDbCircle
10
8.5359719090879906
20
32.708823418411363
30
0
40
1.0442288052346567
210
0
220
0
230
1
100
AcDbArc
50
-0.10323922980835998
51
186.96819029019258
0
CIRCLE
5
110
100
AcDbEntity
8
0
100
AcDbCircle
10
-25.233287663353043
20
27.396988247057742
30
0
40
0.47046429753806546
210
0
220
0
230
1
0
CIRCLE
5
111
100
AcDbEntity
8
0
100
AcDbCircle
10
-25.208616959760658
20
24.856988247057743
30
0
40
0.46658055075918664
210
0
220
0
230
1
0
CIRCLE
5
112
100
AcDbEntity
8
0
100
AcDbCircle
10
-25.208616959760658
20
22.31698824705774
30
0
40
0.52098117287887669
210
0
220
0
230
1
0
CIRCLE
5
113
100
AcDbEntity
8
0
100
AcDbCircle
10
-25.208616959760658
20
-24.943011752942272
30
0
40
0.46658055075918664
210
0
220
0
230
1
0
CIRCLE
5
114
100
AcDbEntity
8
0
100
AcDbCircle
10
-25.208616959760658
20
-27.483011752942271
30
0
40
0.52098117287887669
210
0
220
0
230
1
0
CIRCLE
5
115
100
AcDbEntity
8
0
100
AcDbCircle
10
-25.233287663353043
20
-22.403011752942273
30
0
40
0.47046429753806546
210
0
220
0
230
1
0
LINE
5
116
100
AcDbEntity
8
0
100
AcDbLine
10
-5.9552001859541512
20
-35.371371497461027
30
0
11
-5.921911161473643
21
-36.304227041176233
31
0
0
LINE
5
117
100
AcDbEntity
8
0
100
AcDbLine
10
-3.4235014239714929
20
-36.304227041176233
30
0
11
-3.4564324972528477
21
-35.361972262777471
31
0
0
ARC
5
118
100
AcDbEntity
8
0
100
AcDbCircle
10
-4.6727062927225678
20
-36.25964906580036
30
0
40
1.2500000000000004
210
0
220
0
230
1
100
AcDbArc
50
-177.95626275917462
51
6.0469939085417757
0
ARC
5
119
100
AcDbEntity
8
0
100
AcDbCircle
10
-4.7056697907268887
20
-35.405632136731121
30
0
40
1.2499999999999982
210
0
220
-0
230
1
100
AcDbArc
50
2.0016283338544856
51
185.65806319511745
0
ENDSEC
0
SECTION
2
OBJECTS
0
DICTIONARY
5
C
100
AcDbDictionary
3
ACAD_GROUP
350
D
3
ACAD_MLINESTYLE
350
17
0
DICTIONARY
5
D
100
AcDbDictionary
0
DICTIONARY
5
1A
330
C
100
AcDbDictionary
0
DICTIONARY
5
17
100
AcDbDictionary
0
ENDSEC
0
EOF
