<svg xmlns="http://www.w3.org/2000/svg" xmlns:xlink="http://www.w3.org/1999/xlink" width="245.085mm" height="107.086mm" viewBox="4060 3162.8 964.9 421.6"><title></title><style type="text/css">
*[layerid="1"] {stroke:#000000;fill:#000000;}
*[layerid="2"] {stroke:#000000;fill:#000000;}
*[layerid="3"] {stroke:#000000;fill:#000000;}
*[layerid="4"] {stroke:#000000;fill:#000000;}
*[layerid="5"] {stroke:#000000;fill:#000000;}
*[layerid="6"] {stroke:#000000;fill:#000000;}
*[layerid="7"] {stroke:#000000;fill:#000000;}
*[layerid="8"] {stroke:#000000;fill:#000000;}
*[layerid="9"] {stroke:#000000;fill:#000000;}
*[layerid="10"] {stroke:#000000;fill:#000000;}
*[layerid="11"] {stroke:#000000;fill:#000000;}
*[layerid="12"] {stroke:#000000;fill:#000000;}
*[layerid="13"] {stroke:#000000;fill:#000000;}
*[layerid="14"] {stroke:#000000;fill:#000000;}
*[layerid="15"] {stroke:#000000;fill:#000000;}
*[layerid="19"] {stroke:#000000;fill:#000000;}
*[layerid="21"] {stroke:#000000;fill:#000000;}
*[layerid="22"] {stroke:#000000;fill:#000000;}
*[layerid="23"] {stroke:#000000;fill:#000000;}
*[layerid="24"] {stroke:#000000;fill:#000000;}
*[layerid="25"] {stroke:#000000;fill:#000000;}
*[layerid="26"] {stroke:#000000;fill:#000000;}
*[layerid="27"] {stroke:#000000;fill:#000000;}
*[layerid="28"] {stroke:#000000;fill:#000000;}
*[layerid="29"] {stroke:#000000;fill:#000000;}
*[layerid="30"] {stroke:#000000;fill:#000000;}
*[layerid="31"] {stroke:#000000;fill:#000000;}
*[layerid="32"] {stroke:#000000;fill:#000000;}
*[layerid="33"] {stroke:#000000;fill:#000000;}
*[layerid="34"] {stroke:#000000;fill:#000000;}
*[layerid="35"] {stroke:#000000;fill:#000000;}
*[layerid="36"] {stroke:#000000;fill:#000000;}
*[layerid="37"] {stroke:#000000;fill:#000000;}
*[layerid="38"] {stroke:#000000;fill:#000000;}
*[layerid="39"] {stroke:#000000;fill:#000000;}
*[layerid="40"] {stroke:#000000;fill:#000000;}
*[layerid="41"] {stroke:#000000;fill:#000000;}
*[layerid="42"] {stroke:#000000;fill:#000000;}
*[layerid="43"] {stroke:#000000;fill:#000000;}
*[layerid="44"] {stroke:#000000;fill:#000000;}
*[layerid="45"] {stroke:#000000;fill:#000000;}
*[layerid="46"] {stroke:#000000;fill:#000000;}
*[layerid="47"] {stroke:#000000;fill:#000000;}
*[layerid="48"] {stroke:#000000;fill:#000000;}
*[layerid="49"] {stroke:#000000;fill:#000000;}
*[layerid="50"] {stroke:#000000;fill:#000000;}
*[layerid="51"] {stroke:#000000;fill:#000000;}
*[layerid="52"] {stroke:#000000;fill:#000000;}
*[layerid="99"] {stroke:#000000;fill:#000000;}
*[layerid="100"] {stroke:#000000;fill:#000000;}
*[layerid="101"] {stroke:#000000;fill:#000000;}
*[layerid="Hole"] {stroke:#000000;fill:#000000;}
*[layerid="DRCError"] {stroke:#000000;fill:#000000;}
*[fill="none"] {fill: none;}
*[stroke="none"] {stroke: none;}
path, polyline, polygon, line {stroke-linecap:round;}
g[c_partid="part_pad"][layerid="1"] ellipse:not([c_etype="pad_outer"]) {fill:#000000;}
g[c_partid="part_pad"][layerid="1"] polygon:not([c_etype="pad_outer"]) {fill:#000000;}
g[c_partid="part_pad"][layerid="1"] polyline:not([c_etype="pad_outer"]) {stroke:#000000;}
g[c_partid="part_pad"][layerid="2"] ellipse:not([c_etype="pad_outer"]) {fill:#000000;}
g[c_partid="part_pad"][layerid="2"] polygon:not([c_etype="pad_outer"]) {fill:#000000;}
g[c_partid="part_pad"][layerid="2"] polyline:not([c_etype="pad_outer"]) {stroke:#000000;}
g[c_partid="part_pad"][layerid="11"] ellipse:not([c_etype="pad_outer"]) {fill:#000000;}
g[c_partid="part_pad"][layerid="11"] polygon:not([c_etype="pad_outer"]) {fill:#000000;}
g[c_partid="part_pad"][layerid="11"] polyline:not([c_etype="pad_outer"]) {stroke:#000000;}
g[c_partid="part_pad"][layerid="11"] circle {fill:#FFFFFF;}
g[c_partid="part_pad"][layerid="11"] > polyline:nth-of-type(2) {stroke:#FFFFFF;}
g[c_partid="part_pad"][layerid="11"][c_shape="ELLIPSE"]  polyline:nth-last-of-type(1) {stroke:#FFFFFF;}
g[c_partid="part_pad"][layerid="11"][c_shape="RECT"]  polyline:nth-last-of-type(1) {stroke:#FFFFFF;}
g[c_partid="part_pad"][layerid="11"][c_shape="POLYGON"]  polyline:nth-last-of-type(1) {stroke:#FFFFFF;}
g[c_partid="part_via"] > * + circle, #gCurParts g[c_partid="part_via"] > * + circle {fill:#FFFFFF;}
g[c_partid="part_pad"] > polygon[c_etype="pad_outer"], #gCurParts g[c_partid="part_pad"] > polygon[c_etype="pad_outer"] {stroke-linejoin: round;stroke-miterlimit: 100;}
g[c_partid="part_hole"] > circle {fill: #FFFFFF;}path, polyline, polygon {stroke-linejoin:round;}
rect, circle, ellipse, polyline, line, polygon, path {shape-rendering:crispEdges;}
</style>
<rect x="4060" y="3162.8" width="964.9" height="421.6" fill="#FFFFFF" stroke="none"/><polyline points="4510.94 3172.8 4085.75 3172.8 4070 3188.55 4070 3558.63 4085.75 3574.37 4999.13 3574.37 5014.88 3558.63 5014.88 3188.55 4999.13 3172.8 4510.94 3172.8" stroke-width="1"  stroke-linecap="round" fill="none" layerid="10" net="S$14109" id="gge14108" locked="0" /><polyline points="4078.9829 3331.5837 4141.8755 3354.4747" stroke-width="1"  stroke-linecap="round" fill="none" layerid="10" net="S$1490784" id="gge1259119" locked="0" /><polyline points="4146.9216 3352.1217 4196.7433 3215.2376" stroke-width="1"  stroke-linecap="round" fill="none" layerid="10" net="S$1490784" id="gge1259116" locked="0" /><polyline points="4076.6299 3326.5376 4126.4516 3189.6535" stroke-width="1"  stroke-linecap="round" fill="none" layerid="10" net="S$1490784" id="gge1259110" locked="0" /><polyline points="4194.3903 3210.1915 4131.4977 3187.3005" stroke-width="1"  stroke-linecap="round" fill="none" layerid="10" net="S$1490784" id="gge1259104" locked="0" /><polyline points="4369.9272 3546.1502 4432.8198 3569.0412" stroke-width="1"  stroke-linecap="round" fill="none" layerid="10" net="S$1490784" id="gge1259077" locked="0" /><polyline points="4437.8659 3566.6882 4487.6876 3429.8041" stroke-width="1"  stroke-linecap="round" fill="none" layerid="10" net="S$1490784" id="gge1259074" locked="0" /><polyline points="4367.5742 3541.1041 4417.3959 3404.22" stroke-width="1"  stroke-linecap="round" fill="none" layerid="10" net="S$1490784" id="gge1259068" locked="0" /><polyline points="4485.3346 3424.758 4422.442 3401.867" stroke-width="1"  stroke-linecap="round" fill="none" layerid="10" net="S$1490784" id="gge1259062" locked="0" /><polyline points="4662.4381 3401.8673 4599.5456 3424.7584" stroke-width="1"  stroke-linecap="round" fill="none" layerid="10" net="S$1490784" id="gge1259035" locked="0" /><polyline points="4597.1925 3429.8045 4647.0143 3566.6886" stroke-width="1"  stroke-linecap="round" fill="none" layerid="10" net="S$1490784" id="gge1259032" locked="0" /><polyline points="4667.4842 3404.2204 4717.306 3541.1045" stroke-width="1"  stroke-linecap="round" fill="none" layerid="10" net="S$1490784" id="gge1259026" locked="0" /><polyline points="4652.0603 3569.0416 4714.9529 3546.1506" stroke-width="1"  stroke-linecap="round" fill="none" layerid="10" net="S$1490784" id="gge1259020" locked="0" /><polyline points="4953.3824 3187.3008 4890.4899 3210.1919" stroke-width="1"  stroke-linecap="round" fill="none" layerid="10" net="S$1490784" id="gge1258993" locked="0" /><polyline points="4888.1368 3215.238 4937.9586 3352.1221" stroke-width="1"  stroke-linecap="round" fill="none" layerid="10" net="S$1490784" id="gge1258990" locked="0" /><polyline points="4958.4285 3189.6539 5008.2503 3326.538" stroke-width="1"  stroke-linecap="round" fill="none" layerid="10" net="S$1490784" id="gge1258984" locked="0" /><polyline points="4943.0046 3354.4751 5005.8972 3331.5841" stroke-width="1"  stroke-linecap="round" fill="none" layerid="10" net="S$1490784" id="gge1258978" locked="0" /><polyline points="4660.1786 3305.293 4683.0697 3368.1861" stroke-width="1"  stroke-linecap="round" fill="none" layerid="10" net="S$1490784" id="gge1258643" locked="0" /><polyline points="4721.725 3278.7027 4662.5311 3300.2471" stroke-width="1"  stroke-linecap="round" fill="none" layerid="10" net="S$1490784" id="gge1258640" locked="0" /><polyline points="4724.078 3273.6563 4702.5336 3214.4632" stroke-width="1"  stroke-linecap="round" fill="none" layerid="10" net="S$1490784" id="gge1258637" locked="0" /><polyline points="4771.4789 3185.1795 4704.8861 3209.4173" stroke-width="1"  stroke-linecap="round" fill="none" layerid="10" net="S$1490784" id="gge1258634" locked="0" /><polyline points="4776.5248 3187.5325 4798.0687 3246.7259" stroke-width="1"  stroke-linecap="round" fill="none" layerid="10" net="S$1490784" id="gge1258631" locked="0" /><polyline points="4862.3085 3227.5345 4803.1156 3249.0789" stroke-width="1"  stroke-linecap="round" fill="none" layerid="10" net="S$1490784" id="gge1258628" locked="0" /><polyline points="4887.8925 3297.826 4688.1161 3370.5391" stroke-width="1"  stroke-linecap="round" fill="none" layerid="10" net="S$1490784" id="gge1258625" locked="0" /><polyline points="4867.3549 3229.8875 4890.246 3292.7801" stroke-width="1"  stroke-linecap="round" fill="none" layerid="10" net="S$1490784" id="gge1258622" locked="0" /><polyline points="4424.8138 3305.2922 4401.9227 3368.1851" stroke-width="1"  stroke-linecap="round" fill="none" layerid="10" net="S$1490784" id="gge1258595" locked="0" /><polyline points="4363.2674 3278.7017 4422.4608 3300.2463" stroke-width="1"  stroke-linecap="round" fill="none" layerid="10" net="S$1490784" id="gge1258592" locked="0" /><polyline points="4360.9144 3273.6555 4382.4588 3214.4622" stroke-width="1"  stroke-linecap="round" fill="none" layerid="10" net="S$1490784" id="gge1258589" locked="0" /><polyline points="4313.5135 3185.1785 4380.1063 3209.4163" stroke-width="1"  stroke-linecap="round" fill="none" layerid="10" net="S$1490784" id="gge1258586" locked="0" /><polyline points="4308.4676 3187.5317 4286.9232 3246.7249" stroke-width="1"  stroke-linecap="round" fill="none" layerid="10" net="S$1490784" id="gge1258583" locked="0" /><polyline points="4222.6839 3227.5335 4281.8768 3249.0779" stroke-width="1"  stroke-linecap="round" fill="none" layerid="10" net="S$1490784" id="gge1258580" locked="0" /><polyline points="4197.0995 3297.8252 4396.8763 3370.5381" stroke-width="1"  stroke-linecap="round" fill="none" layerid="10" net="S$1490784" id="gge1258577" locked="0" /><polyline points="4217.6375 3229.8865 4194.7464 3292.7791" stroke-width="1"  stroke-linecap="round" fill="none" layerid="10" net="S$1490784" id="gge1258574" locked="0" /><path d="M 4194.7467 3292.7791 A 3.937 3.937 0 0 0 4197.0997 3297.8252" locked="0"  fill="none" stroke-width="1" c_helper_type="arc2" net="S$1490936" layerid="10" id="gge1254689" /><path d="M 4222.6838 3227.5334 A 3.937 3.937 0 0 0 4217.6377 3229.8864" locked="0"  fill="none" stroke-width="1" c_helper_type="arc2" net="S$1490936" layerid="10" id="gge1254692" /><path d="M 4281.877 3249.0779 A 3.937 3.937 0 0 0 4286.9231 3246.7249" locked="0"  fill="none" stroke-width="1" c_helper_type="arc2" net="S$1490936" layerid="10" id="gge1254695" /><path d="M 4313.5137 3185.1787 A 3.937 3.937 0 0 0 4308.4676 3187.5318" locked="0"  fill="none" stroke-width="1" c_helper_type="arc2" net="S$1490936" layerid="10" id="gge1254698" /><path d="M 4382.459 3214.4624 A 3.937 3.937 0 0 0 4380.106 3209.4163" locked="0"  fill="none" stroke-width="1" c_helper_type="arc2" net="S$1490936" layerid="10" id="gge1254701" /><path d="M 4360.9145 3273.6555 A 3.937 3.937 0 0 0 4363.2675 3278.7016" locked="0"  fill="none" stroke-width="1" c_helper_type="arc2" net="S$1490936" layerid="10" id="gge1254704" /><path d="M 4396.8765 3370.538 A 3.937 3.937 0 0 0 4401.9226 3368.185" locked="0"  fill="none" stroke-width="1" c_helper_type="arc2" net="S$1490936" layerid="10" id="gge1254707" /><path d="M 4424.8137 3305.2923 A 3.937 3.937 0 0 0 4422.4606 3300.2462" locked="0"  fill="none" stroke-width="1" c_helper_type="arc2" net="S$1490936" layerid="10" id="gge1254710" /><path d="M 4660.1785 3305.2932 A 3.937 3.937 0 0 1 4662.5316 3300.2471" locked="0"  fill="none" stroke-width="1" c_helper_type="arc2" net="S$1490936" layerid="10" id="gge1254812" /><path d="M 4688.1157 3370.5389 A 3.937 3.937 0 0 1 4683.0696 3368.1859" locked="0"  fill="none" stroke-width="1" c_helper_type="arc2" net="S$1490936" layerid="10" id="gge1254815" /><path d="M 4724.0777 3273.6564 A 3.937 3.937 0 0 1 4721.7247 3278.7025" locked="0"  fill="none" stroke-width="1" c_helper_type="arc2" net="S$1490936" layerid="10" id="gge1254818" /><path d="M 4702.5332 3214.4633 A 3.937 3.937 0 0 1 4704.8862 3209.4172" locked="0"  fill="none" stroke-width="1" c_helper_type="arc2" net="S$1490936" layerid="10" id="gge1254821" /><path d="M 4771.4785 3185.1796 A 3.937 3.937 0 0 1 4776.5246 3187.5327" locked="0"  fill="none" stroke-width="1" c_helper_type="arc2" net="S$1490936" layerid="10" id="gge1254824" /><path d="M 4803.1152 3249.0788 A 3.937 3.937 0 0 1 4798.0691 3246.7258" locked="0"  fill="none" stroke-width="1" c_helper_type="arc2" net="S$1490936" layerid="10" id="gge1254827" /><path d="M 4862.3084 3227.5343 A 3.937 3.937 0 0 1 4867.3545 3229.8873" locked="0"  fill="none" stroke-width="1" c_helper_type="arc2" net="S$1490936" layerid="10" id="gge1254830" /><path d="M 4890.2455 3292.78 A 3.937 3.937 0 0 1 4887.8925 3297.8261" locked="0"  fill="none" stroke-width="1" c_helper_type="arc2" net="S$1490936" layerid="10" id="gge1254833" /><path d="M 4958.4289 3189.6537 A 3.937 3.937 0 0 0 4953.3828 3187.3007" locked="0"  fill="none" stroke-width="1" c_helper_type="arc2" net="S$1490936" layerid="10" id="gge1258963" /><path d="M 4937.9586 3352.1221 A 3.937 3.937 0 0 0 4943.0046 3354.4751" locked="0"  fill="none" stroke-width="1" c_helper_type="arc2" net="S$1490936" layerid="10" id="gge1258966" /><path d="M 5005.8974 3331.5841 A 3.937 3.937 0 0 0 5008.2504 3326.5379" locked="0"  fill="none" stroke-width="1" c_helper_type="arc2" net="S$1490936" layerid="10" id="gge1258969" /><path d="M 4890.4901 3210.1917 A 3.937 3.937 0 0 0 4888.137 3215.2378" locked="0"  fill="none" stroke-width="1" c_helper_type="arc2" net="S$1490936" layerid="10" id="gge1258975" /><path d="M 4667.4846 3404.2202 A 3.937 3.937 0 0 0 4662.4385 3401.8672" locked="0"  fill="none" stroke-width="1" c_helper_type="arc2" net="S$1490936" layerid="10" id="gge1259005" /><path d="M 4647.0143 3566.6886 A 3.937 3.937 0 0 0 4652.0603 3569.0416" locked="0"  fill="none" stroke-width="1" c_helper_type="arc2" net="S$1490936" layerid="10" id="gge1259008" /><path d="M 4714.9531 3546.1506 A 3.937 3.937 0 0 0 4717.3061 3541.1044" locked="0"  fill="none" stroke-width="1" c_helper_type="arc2" net="S$1490936" layerid="10" id="gge1259011" /><path d="M 4599.5458 3424.7582 A 3.937 3.937 0 0 0 4597.1927 3429.8043" locked="0"  fill="none" stroke-width="1" c_helper_type="arc2" net="S$1490936" layerid="10" id="gge1259017" /><path d="M 4367.5738 3541.104 A 3.937 3.937 0 0 0 4369.9268 3546.1501" locked="0"  fill="none" stroke-width="1" c_helper_type="arc2" net="S$1490936" layerid="10" id="gge1259047" /><path d="M 4487.6876 3429.8041 A 3.937 3.937 0 0 0 4485.3346 3424.758" locked="0"  fill="none" stroke-width="1" c_helper_type="arc2" net="S$1490936" layerid="10" id="gge1259050" /><path d="M 4422.4419 3401.8669 A 3.937 3.937 0 0 0 4417.3958 3404.22" locked="0"  fill="none" stroke-width="1" c_helper_type="arc2" net="S$1490936" layerid="10" id="gge1259053" /><path d="M 4432.8195 3569.0412 A 3.937 3.937 0 0 0 4437.8656 3566.6882" locked="0"  fill="none" stroke-width="1" c_helper_type="arc2" net="S$1490936" layerid="10" id="gge1259059" /><path d="M 4076.6295 3326.5375 A 3.937 3.937 0 0 0 4078.9825 3331.5836" locked="0"  fill="none" stroke-width="1" c_helper_type="arc2" net="S$1490936" layerid="10" id="gge1259089" /><path d="M 4196.7433 3215.2376 A 3.937 3.937 0 0 0 4194.3903 3210.1915" locked="0"  fill="none" stroke-width="1" c_helper_type="arc2" net="S$1490936" layerid="10" id="gge1259092" /><path d="M 4131.4976 3187.3004 A 3.937 3.937 0 0 0 4126.4515 3189.6535" locked="0"  fill="none" stroke-width="1" c_helper_type="arc2" net="S$1490936" layerid="10" id="gge1259095" /><path d="M 4141.8752 3354.4747 A 3.937 3.937 0 0 0 4146.9213 3352.1217" locked="0"  fill="none" stroke-width="1" c_helper_type="arc2" net="S$1490936" layerid="10" id="gge1259101" /><circle cx="4093.622" cy="3542.878" r="4.921" stroke-width="1" fill="none" layerid="10" id="gge1257737" locked="0"  net="S$1382675" transformarc="circle_gge1257740,circle_gge1257743"/><circle cx="4093.622" cy="3196.422" r="4.921" stroke-width="1" fill="none" layerid="10" id="gge1257761" locked="0"  net="S$1382675" transformarc="circle_gge1257764,circle_gge1257767"/><circle cx="4424.33" cy="3196.422" r="4.921" stroke-width="1" fill="none" layerid="10" id="gge1257785" locked="0"  net="S$1382675" transformarc="circle_gge1257788,circle_gge1257791"/><circle cx="4660.55" cy="3196.422" r="4.921" stroke-width="1" fill="none" layerid="10" id="gge1257809" locked="0"  net="S$1382675" transformarc="circle_gge1257812,circle_gge1257815"/><circle cx="4542.44" cy="3542.878" r="4.921" stroke-width="1" fill="none" layerid="10" id="gge1257857" locked="0"  net="S$1382675" transformarc="circle_gge1257860,circle_gge1257863"/><circle cx="4991.258" cy="3196.422" r="4.921" stroke-width="1" fill="none" layerid="10" id="gge1257881" locked="0"  net="S$1382675" transformarc="circle_gge1257884,circle_gge1257887"/><circle cx="4991.258" cy="3542.878" r="4.921" stroke-width="1" fill="none" layerid="10" id="gge1257905" locked="0"  net="S$1382675" transformarc="circle_gge1257908,circle_gge1257911"/><circle cx="4483.385" cy="3346.028" r="8.858" stroke-width="1" fill="none" layerid="10" id="gge1258115" locked="0"  net="S$1382675" transformarc="circle_gge1258118,circle_gge1258121"/><circle cx="4522.755" cy="3346.028" r="8.858" stroke-width="1" fill="none" layerid="10" id="gge1258448" locked="0"  net="S$1382675" transformarc="circle_gge1258451,circle_gge1258454"/><circle cx="4562.125" cy="3346.028" r="8.858" stroke-width="1" fill="none" layerid="10" id="gge1258475" locked="0"  net="S$1382675" transformarc="circle_gge1258478,circle_gge1258481"/><circle cx="4601.495" cy="3346.028" r="8.858" stroke-width="1" fill="none" layerid="10" id="gge1258502" locked="0"  net="S$1382675" transformarc="circle_gge1258505,circle_gge1258508"/><circle cx="4471.574" cy="3196.422" r="8.858" stroke-width="1" fill="none" layerid="10" id="gge1258529" locked="0"  net="S$1382675" transformarc="circle_gge1258532,circle_gge1258535"/></svg>