0
SECTION
2
HEADER
9
$INSUNITS
70
4
9
$ACADVER
1
AC1014
9
$HANDSEED
5
FFFF
0
ENDSEC
0
SECTION
2
TABLES
0
TABLE
2
VPORT
5
8
100
AcDbSymbolTable
0
ENDTAB
0
TABLE
2
LTYPE
5
5
100
AcDbSymbolTable
0
LTYPE
5
14
100
AcDbSymbolTableRecord
100
AcDbLinetypeTableRecord
2
BYBLOCK
70
0
0
LTYPE
5
15
100
AcDbSymbolTableRecord
100
AcDbLinetypeTableRecord
2
BYLAYER
70
0
0
LTYPE
5
16
100
AcDbSymbolTableRecord
100
AcDbLinetypeTableRecord
2
DASHED
70
0
3
Dashed __ __ __ __ __ __ __ __ __ __ __ __ __ _
72
65
73
2
40
0.75
49
0.5
74
0
49
-0.25
74
0
0
ENDTAB
0
TABLE
2
LAYER
5
2
100
AcDbSymbolTable
70
2
0
LAYER
5
50
100
AcDbSymbolTableRecord
100
AcDbLayerTableRecord
2
0
70
0
62
7
6
CONTINUOUS
0
ENDTAB
0
TABLE
2
STYLE
5
3
100
AcDbSymbolTable
70
1
0
STYLE
5
11
100
AcDbSymbolTableRecord
100
AcDbTextStyleTableRecord
2
STANDARD
70
0
0
ENDTAB
0
TABLE
2
VIEW
5
6
100
AcDbSymbolTable
70
0
0
ENDTAB
0
TABLE
2
UCS
5
7
100
AcDbSymbolTable
70
0
0
ENDTAB
0
TABLE
2
APPID
5
9
100
AcDbSymbolTable
70
2
0
APPID
5
12
100
AcDbSymbolTableRecord
100
AcDbRegAppTableRecord
2
ACAD
70
0
0
ENDTAB
0
TABLE
2
DIMSTYLE
5
A
100
AcDbSymbolTable
70
1
0
ENDTAB
0
TABLE
2
BLOCK_RECORD
5
1
100
AcDbSymbolTable
70
1
0
BLOCK_RECORD
5
1F
100
AcDbSymbolTableRecord
100
AcDbBlockTableRecord
2
*MODEL_SPACE
0
BLOCK_RECORD
5
1B
100
AcDbSymbolTableRecord
100
AcDbBlockTableRecord
2
*PAPER_SPACE
0
ENDTAB
0
ENDSEC
0
SECTION
2
BLOCKS
0
BLOCK
5
20
100
AcDbEntity
100
AcDbBlockBegin
2
*MODEL_SPACE
0
ENDBLK
5
21
100
AcDbEntity
100
AcDbBlockEnd
0
BLOCK
5
1C
100
AcDbEntity
100
AcDbBlockBegin
2
*PAPER_SPACE
0
ENDBLK
5
1D
100
AcDbEntity
100
AcDbBlockEnd
0
ENDSEC
0
SECTION
2
ENTITIES
0
CIRCLE
5
100
100
AcDbEntity
8
0
100
AcDbCircle
10
-140.00002540005079
20
-118.99999999999999
30
0
40
2.5
210
0
220
-0
230
1
0
CIRCLE
5
101
100
AcDbEntity
8
0
100
AcDbCircle
10
-137.5000037625432
20
-111.50000189989805
30
0
40
1.25
210
0
220
-0
230
1
0
CIRCLE
5
102
100
AcDbEntity
8
0
100
AcDbCircle
10
-240
20
-10
30
0
40
1.25
210
0
220
-0
230
1
0
CIRCLE
5
103
100
AcDbEntity
8
0
100
AcDbCircle
10
-240
20
-115
30
0
40
1.25
210
0
220
-0
230
1
0
CIRCLE
5
104
100
AcDbEntity
8
0
100
AcDbCircle
10
-207.78024606443569
20
-64.886974156985858
30
0
40
12.015140139967997
210
0
220
0
230
1
0
CIRCLE
5
105
100
AcDbEntity
8
0
100
AcDbCircle
10
-179.58345989817133
20
-72.188338664841737
30
0
40
12.017682290688612
210
0
220
0
230
1
0
CIRCLE
5
106
100
AcDbEntity
8
0
100
AcDbCircle
10
-151.29241199137635
20
-71.988281435145012
30
0
40
12.017226415303437
210
0
220
0
230
1
0
CIRCLE
5
107
100
AcDbEntity
8
0
100
AcDbCircle
10
-207.60919542540248
20
-95.599979983120008
30
0
40
12.014513243369151
210
0
220
0
230
1
0
CIRCLE
5
108
100
AcDbEntity
8
0
100
AcDbCircle
10
-179.70202415036391
20
-102.81353198598376
30
0
40
12.005054507546902
210
0
220
0
230
1
0
CIRCLE
5
109
100
AcDbEntity
8
0
100
AcDbCircle
10
-151.29000361917144
20
-102.78991860698191
30
0
40
12.017930360866966
210
0
220
0
230
1
0
CIRCLE
5
110
100
AcDbEntity
8
0
100
AcDbCircle
10
-127.0932394960401
20
-86.90834997882213
30
0
40
12.006339309586238
210
0
220
0
230
1
0
LWPOLYLINE
5
111
100
AcDbEntity
8
0
100
AcDbPolyline
90
16
70
1
43
0.0
10
-82.667795163167284
20
-101.3857830926155
10
-77.195465829553385
20
-86.350681816692173
42
0.41421356237309415
10
-77.793138307013635
20
-85.068969052580584
10
-92.82821970749275
20
-79.596646953036782
42
-0.41421356237310175
10
-93.425892184952986
20
-78.314934188925207
10
-87.611549748416621
20
-62.340159635564767
42
-0.41421356237309331
10
-86.329836984305047
20
-61.742487158104538
10
-35.586435461865975
20
-80.211574897690639
42
-0.41421356237308682
10
-34.988762984405739
20
-81.493287661802199
10
-40.80310542094211
20
-97.468062215162647
42
-0.41421356237310258
10
-42.084818185053692
20
-98.065734692622883
10
-57.119927936740581
20
-92.59340227408336
42
0.41421356237309748
10
-58.401640700852163
20
-93.19107475154361
10
-63.873970034466069
20
-108.22617602746692
42
-0.41421356237310086
10
-65.155682798577644
20
-108.82384850492716
10
-82.070122685707048
20
-102.6674958567271
42
-0.41421356237309509
0
CIRCLE
5
112
100
AcDbEntity
8
0
100
AcDbCircle
10
-10
20
-10
30
0
40
1.25
210
0
220
-0
230
1
0
CIRCLE
5
113
100
AcDbEntity
8
0
100
AcDbCircle
10
-115.40476686020851
20
-22.760163849892336
30
0
40
15.028558025765655
210
0
220
0
230
1
0
CIRCLE
5
114
100
AcDbEntity
8
0
100
AcDbCircle
10
-10
20
-115
30
0
40
1.25
210
0
220
-0
230
1
0
LWPOLYLINE
5
115
100
AcDbEntity
8
0
100
AcDbPolyline
90
8
70
1
43
0.0
10
-43.000000640749931
20
-128.00000192224979
10
-43.000000640749931
20
-126.00000186264516
10
-42.000000640749931
20
-125.00000186264515
10
-22.000000312924382
20
-125.00000186264515
10
-21.000000312924385
20
-126.00000186264515
10
-21.000000312924385
20
-128.00000192224979
10
-22.000000312924382
20
-129.00000192224979
10
-42.000000640749931
20
-129.00000192224979
0
CIRCLE
5
116
100
AcDbEntity
8
0
100
AcDbCircle
10
-127.25675555676671
20
-56.255373270476035
30
0
40
12.015942194847787
210
0
220
0
230
1
0
CIRCLE
5
117
100
AcDbEntity
8
0
100
AcDbCircle
10
-132
20
-10
30
0
40
1.25
210
0
220
-0
230
1
0
LWPOLYLINE
5
118
100
AcDbEntity
8
0
100
AcDbPolyline
90
16
70
1
43
0.0
10
-240.0000037252903
20
-124.98727457454001
10
-46.000000670552268
20
-124.98727457454001
10
-45.000000670552254
20
-125.98727457454001
10
-45.000000670552254
20
-129.00000195205212
10
-43.000000670552254
20
-131.00000195205212
10
-21.000000283122063
20
-131.00000195205212
10
-19.000000283122063
20
-129.00000195205212
10
-19.000000283122063
20
-125.98727457454001
10
-18.000000283122066
20
-124.98727457454001
10
-10
20
-124.98727457454001
10
0
20
-114.98727457454001
10
0
20
-10
10
-10
20
0
10
-240.0000037252903
20
0
10
-250.0000037252903
20
-10
10
-250.0000037252903
20
-114.98727457454001
0
CIRCLE
5
119
100
AcDbEntity
8
0
100
AcDbCircle
10
-20.999974599949201
20
-119.00000000000003
30
0
40
2.25
210
0
220
-0
230
1
0
CIRCLE
5
120
100
AcDbEntity
8
0
100
AcDbCircle
10
-30.999974599949201
20
-119.00000000000003
30
0
40
2.5
210
0
220
-0
230
1
0
CIRCLE
5
121
100
AcDbEntity
8
0
100
AcDbCircle
10
-40.999974599949205
20
-119.00000000000003
30
0
40
2.5
210
0
220
-0
230
1
0
CIRCLE
5
122
100
AcDbEntity
8
0
100
AcDbCircle
10
-50.999974599949205
20
-119.00000000000003
30
0
40
2.5
210
0
220
-0
230
1
0
CIRCLE
5
123
100
AcDbEntity
8
0
100
AcDbCircle
10
-60.999974599949205
20
-119.00000000000003
30
0
40
2.5
210
0
220
-0
230
1
0
CIRCLE
5
124
100
AcDbEntity
8
0
100
AcDbCircle
10
-70.999974599949212
20
-119.00000000000003
30
0
40
2.5
210
0
220
-0
230
1
0
ENDSEC
0
SECTION
2
OBJECTS
0
DICTIONARY
5
C
100
AcDbDictionary
3
ACAD_GROUP
350
D
3
ACAD_MLINESTYLE
350
17
0
DICTIONARY
5
D
100
AcDbDictionary
0
DICTIONARY
5
1A
330
C
100
AcDbDictionary
0
DICTIONARY
5
17
100
AcDbDictionary
0
ENDSEC
0
EOF
