0
SECTION
2
HEADER
9
$INSUNITS
70
4
9
$ACADVER
1
AC1014
9
$HANDSEED
5
FFFF
0
ENDSEC
0
SECTION
2
TABLES
0
TABLE
2
VPORT
5
8
100
AcDbSymbolTable
0
ENDTAB
0
TABLE
2
LTYPE
5
5
100
AcDbSymbolTable
0
LTYPE
5
14
100
AcDbSymbolTableRecord
100
AcDbLinetypeTableRecord
2
BYBLOCK
70
0
0
LTYPE
5
15
100
AcDbSymbolTableRecord
100
AcDbLinetypeTableRecord
2
BYLAYER
70
0
0
LTYPE
5
16
100
AcDbSymbolTableRecord
100
AcDbLinetypeTableRecord
2
DASHED
70
0
3
Dashed __ __ __ __ __ __ __ __ __ __ __ __ __ _
72
65
73
2
40
0.75
49
0.5
74
0
49
-0.25
74
0
0
ENDTAB
0
TABLE
2
LAYER
5
2
100
AcDbSymbolTable
70
3
0
LAYER
5
50
100
AcDbSymbolTableRecord
100
AcDbLayerTableRecord
2
1
70
0
62
7
6
DASHED
0
LAYER
5
51
100
AcDbSymbolTableRecord
100
AcDbLayerTableRecord
2
0
70
0
62
7
6
CONTINUOUS
0
ENDTAB
0
TABLE
2
STYLE
5
3
100
AcDbSymbolTable
70
1
0
STYLE
5
11
100
AcDbSymbolTableRecord
100
AcDbTextStyleTableRecord
2
STANDARD
70
0
0
ENDTAB
0
TABLE
2
VIEW
5
6
100
AcDbSymbolTable
70
0
0
ENDTAB
0
TABLE
2
UCS
5
7
100
AcDbSymbolTable
70
0
0
ENDTAB
0
TABLE
2
APPID
5
9
100
AcDbSymbolTable
70
2
0
APPID
5
12
100
AcDbSymbolTableRecord
100
AcDbRegAppTableRecord
2
ACAD
70
0
0
ENDTAB
0
TABLE
2
DIMSTYLE
5
A
100
AcDbSymbolTable
70
1
0
ENDTAB
0
TABLE
2
BLOCK_RECORD
5
1
100
AcDbSymbolTable
70
1
0
BLOCK_RECORD
5
1F
100
AcDbSymbolTableRecord
100
AcDbBlockTableRecord
2
*MODEL_SPACE
0
BLOCK_RECORD
5
1B
100
AcDbSymbolTableRecord
100
AcDbBlockTableRecord
2
*PAPER_SPACE
0
ENDTAB
0
ENDSEC
0
SECTION
2
BLOCKS
0
BLOCK
5
20
100
AcDbEntity
100
AcDbBlockBegin
2
*MODEL_SPACE
0
ENDBLK
5
21
100
AcDbEntity
100
AcDbBlockEnd
0
BLOCK
5
1C
100
AcDbEntity
100
AcDbBlockBegin
2
*PAPER_SPACE
0
ENDBLK
5
1D
100
AcDbEntity
100
AcDbBlockEnd
0
ENDSEC
0
SECTION
2
ENTITIES
0
CIRCLE
5
100
100
AcDbEntity
8
0
100
AcDbCircle
10
0
20
52.024999999999999
30
0
40
8.5000000000000053
210
0
220
-0
230
1
0
CIRCLE
5
101
100
AcDbEntity
8
0
100
AcDbCircle
10
-30.310889132455365
20
-17.499999999999979
30
0
40
3.125
210
0
220
-0
230
1
0
CIRCLE
5
102
100
AcDbEntity
8
0
100
AcDbCircle
10
51
20
-10.200000000000005
30
0
40
7.5
210
0
220
-0
230
1
0
CIRCLE
5
103
100
AcDbEntity
8
0
100
AcDbCircle
10
0
20
-35
30
0
40
3.125
210
0
220
-0
230
1
0
CIRCLE
5
104
100
AcDbEntity
8
0
100
AcDbCircle
10
30.310889132455358
20
17.499999999999993
30
0
40
3.125
210
0
220
-0
230
1
0
CIRCLE
5
105
100
AcDbEntity
8
0
100
AcDbCircle
10
0
20
68.424999999999997
30
0
40
3.5000000000000009
210
0
220
-0
230
1
0
CIRCLE
5
106
100
AcDbEntity
8
0
100
AcDbCircle
10
-30.310889132455344
20
17.500000000000007
30
0
40
3.125
210
0
220
-0
230
1
0
LWPOLYLINE
5
107
100
AcDbEntity
8
0
100
AcDbPolyline
90
4
70
1
43
0.0
10
62.650000000000006
20
-18.850000000000019
10
62.65000000000002
20
-2.0000000149011647
42
-0.99999999999999989
10
79.650000000000006
20
-2.0000000298023206
10
79.650000000000006
20
-18.850000000000001
42
-0.99999999999999989
0
CIRCLE
5
108
100
AcDbEntity
8
0
100
AcDbCircle
10
30.310889132455351
20
-17.500000000000004
30
0
40
3.125
210
0
220
-0
230
1
0
CIRCLE
5
109
100
AcDbEntity
8
0
100
AcDbCircle
10
4.2862637970157365e-15
20
35
30
0
40
3.125
210
0
220
-0
230
1
0
LWPOLYLINE
5
110
100
AcDbEntity
8
0
100
AcDbPolyline
90
4
70
1
43
0.0
10
-62.650000000000006
20
-2.0000000298023224
10
-62.650000000000006
20
-18.849999999999973
42
-0.99999999999999989
10
-79.650000000000006
20
-18.850000000000044
10
-79.650000000000006
20
-2.0000000149011621
42
-0.99999999999999989
0
LWPOLYLINE
5
111
100
AcDbEntity
8
0
100
AcDbPolyline
90
20
70
1
43
0.0
10
24.190029013206249
20
-45.224999999999994
42
0.076068033827337747
10
36.151660703449735
20
-43.394613140651074
10
80.532247611394538
20
-29.486580255080614
42
-0.56807906500996752
10
85.654919514209539
20
-34.066777550651899
10
82.972974392044478
20
-47.864189099498169
42
-0.27263129185209461
10
76.246872501317313
20
-55.466664308684258
10
58.079990241640928
20
-61.3694421739973
42
-0.19367846523207002
10
50.630441894656535
20
-60.85864478235014
10
41.064941239656392
20
-56.225232228695617
42
0.11325050075394845
10
36.705562836421464
20
-55.225000000000001
10
-36.705562836421493
20
-55.225000000000001
42
0.11325050075394995
10
-41.064941239656406
20
-56.225232228695631
10
-50.630441894656535
20
-60.858644782350154
42
-0.19367846523207002
10
-58.079990241640935
20
-61.3694421739973
10
-76.246872501317313
20
-55.466664308684258
42
-0.27263129185209434
10
-82.972974392044478
20
-47.864189099498176
10
-85.654919514209539
20
-34.066777550651899
42
-0.56807906500996708
10
-80.532247611394538
20
-29.486580255080614
10
-36.151660703449735
20
-43.394613140651082
42
0.076068033827339343
10
-24.190029013206271
20
-45.225000000000001
0
LWPOLYLINE
5
112
100
AcDbEntity
8
0
100
AcDbPolyline
90
17
70
1
43
0.0
10
-75.076723839906506
20
30.058621082398304
42
0.19891236737965687
10
-76.845816152845828
20
32.557199756430691
10
-88.98288806769699
20
40.200321851100902
42
-0.41421356237309509
10
-90.236155627924319
20
45.716599619894083
10
-81.710135210792657
20
59.255690277935109
10
-73.175890750904614
20
72.789598490231739
42
-0.41421356237309509
10
-67.658852582858444
20
74.039514428333888
10
-55.527630758085436
20
66.389779331440309
42
0.1990702681435931
10
-52.507875652635569
20
65.872658967292196
10
-47.449446024498485
20
67.021905982100151
42
-0.19891236737965765
10
-44.431746929737699
20
66.506081229388144
10
-33.161432221723551
20
59.408785278351822
42
-0.41421356237309531
10
-29.714946431098376
20
44.23902141417058
10
-45.701234713220273
20
18.853226430343668
42
-0.4142135623730952
10
-60.870998577401508
20
15.406740639718493
10
-72.161877326125094
20
22.51698645831798
42
-0.19891236737965823
10
-73.930969639064429
20
25.015565132350375
0
LWPOLYLINE
5
113
100
AcDbEntity
8
0
100
AcDbPolyline
90
17
70
1
43
0.0
10
52.507875652635569
20
65.872658967292196
42
0.19907026814359272
10
55.527630758085429
20
66.389779331440309
10
67.658852582858458
20
74.039514428333888
42
-0.41421356237309448
10
73.175890750904614
20
72.789598490231754
10
81.710135210792657
20
59.255690277935109
10
90.236155627924319
20
45.716599619894097
42
-0.41421356237309509
10
88.98288806769699
20
40.200321851100909
10
76.845816152845842
20
32.557199756430698
42
0.19891236737965537
10
75.076723839906506
20
30.058621082398311
10
73.930969639064429
20
25.015565132350378
42
-0.19891236737965834
10
72.161877326125094
20
22.516986458317984
10
60.870998577401508
20
15.406740639718501
42
-0.41421356237309515
10
45.701234713220273
20
18.853226430343671
10
29.714946431098362
20
44.239021414170601
42
-0.41421356237309503
10
33.161432221723537
20
59.408785278351829
10
44.431746929737699
20
66.506081229388144
42
-0.19891236737965765
10
47.449446024498485
20
67.021905982100151
0
LWPOLYLINE
5
114
100
AcDbEntity
8
0
100
AcDbPolyline
90
10
70
1
43
0.0
10
45.000000670552254
20
75.00000111758709
10
-45.000000670552254
20
75.00000111758709
10
-75.00000111758709
20
85.000001266598701
10
-103.39764642247894
20
39.966005954164828
10
-85.000001266598701
20
-57.000000849366202
10
-55.000000819563866
20
-67.000000998377814
10
55.000000819563866
20
-67.000000998377814
10
85.000001266598701
20
-57.000000849366195
10
103.39764642247894
20
39.966005954164842
10
75.00000111758709
20
85.000001266598701
0
ENDSEC
0
SECTION
2
OBJECTS
0
DICTIONARY
5
C
100
AcDbDictionary
3
ACAD_GROUP
350
D
3
ACAD_MLINESTYLE
350
17
0
DICTIONARY
5
D
100
AcDbDictionary
0
DICTIONARY
5
1A
330
C
100
AcDbDictionary
0
DICTIONARY
5
17
100
AcDbDictionary
0
ENDSEC
0
EOF
