0
SECTION
2
HEADER
9
$INSUNITS
70
4
9
$ACADVER
1
AC1014
9
$HANDSEED
5
FFFF
0
ENDSEC
0
SECTION
2
TABLES
0
TABLE
2
VPORT
5
8
100
AcDbSymbolTable
0
ENDTAB
0
TABLE
2
LTYPE
5
5
100
AcDbSymbolTable
0
LTYPE
5
14
100
AcDbSymbolTableRecord
100
AcDbLinetypeTableRecord
2
BYBLOCK
70
0
0
LTYPE
5
15
100
AcDbSymbolTableRecord
100
AcDbLinetypeTableRecord
2
BYLAYER
70
0
0
LTYPE
5
16
100
AcDbSymbolTableRecord
100
AcDbLinetypeTableRecord
2
DASHED
70
0
3
Dashed __ __ __ __ __ __ __ __ __ __ __ __ __ _
72
65
73
2
40
0.75
49
0.5
74
0
49
-0.25
74
0
0
ENDTAB
0
TABLE
2
LAYER
5
2
100
AcDbSymbolTable
70
3
0
LAYER
5
50
100
AcDbSymbolTableRecord
100
AcDbLayerTableRecord
2
1
70
0
62
7
6
DASHED
0
LAYER
5
51
100
AcDbSymbolTableRecord
100
AcDbLayerTableRecord
2
0
70
0
62
7
6
CONTINUOUS
0
ENDTAB
0
TABLE
2
STYLE
5
3
100
AcDbSymbolTable
70
1
0
STYLE
5
11
100
AcDbSymbolTableRecord
100
AcDbTextStyleTableRecord
2
STANDARD
70
0
0
ENDTAB
0
TABLE
2
VIEW
5
6
100
AcDbSymbolTable
70
0
0
ENDTAB
0
TABLE
2
UCS
5
7
100
AcDbSymbolTable
70
0
0
ENDTAB
0
TABLE
2
APPID
5
9
100
AcDbSymbolTable
70
2
0
APPID
5
12
100
AcDbSymbolTableRecord
100
AcDbRegAppTableRecord
2
ACAD
70
0
0
ENDTAB
0
TABLE
2
DIMSTYLE
5
A
100
AcDbSymbolTable
70
1
0
ENDTAB
0
TABLE
2
BLOCK_RECORD
5
1
100
AcDbSymbolTable
70
1
0
BLOCK_RECORD
5
1F
100
AcDbSymbolTableRecord
100
AcDbBlockTableRecord
2
*MODEL_SPACE
0
BLOCK_RECORD
5
1B
100
AcDbSymbolTableRecord
100
AcDbBlockTableRecord
2
*PAPER_SPACE
0
ENDTAB
0
ENDSEC
0
SECTION
2
BLOCKS
0
BLOCK
5
20
100
AcDbEntity
100
AcDbBlockBegin
2
*MODEL_SPACE
0
ENDBLK
5
21
100
AcDbEntity
100
AcDbBlockEnd
0
BLOCK
5
1C
100
AcDbEntity
100
AcDbBlockBegin
2
*PAPER_SPACE
0
ENDBLK
5
1D
100
AcDbEntity
100
AcDbBlockEnd
0
ENDSEC
0
SECTION
2
ENTITIES
0
LWPOLYLINE
5
100
100
AcDbEntity
8
0
100
AcDbPolyline
90
18
70
1
43
0.0
10
20.050000000000004
20
74.999999999999986
10
-20.050000000000004
20
74.999999999999986
10
-20.050000000000008
20
65.359399265143225
42
-0.14143084534245834
10
-23.126136677448752
20
54.701873743728584
10
-49.606767114836487
20
12.651346225230633
42
-0.34042776856036894
10
-61.059106698672984
20
8.4377057007751812
10
-82.650000000000006
20
15.203881521896269
10
-82.650000000000006
20
-28.822916885208691
10
-36.15166070344975
20
-43.394613140651082
42
0.07606803382733944
10
-24.19002901320626
20
-45.225000000000009
10
24.190029013206274
20
-45.224999999999994
42
0.076068033827338968
10
36.15166070344975
20
-43.394613140651074
10
82.650000000000006
20
-28.822916885208699
10
82.650000000000006
20
15.203881526566008
10
61.059106696216986
20
8.4377057046752615
42
-0.34042776856036933
10
49.606767112380467
20
12.651346229130722
10
23.126136677448741
20
54.701873743728733
42
-0.14143084534245812
10
20.050000000000008
20
65.359399265143367
0
CIRCLE
5
101
100
AcDbEntity
8
0
100
AcDbCircle
10
0
20
-35
30
0
40
3.125
210
0
220
0
230
1
0
CIRCLE
5
102
100
AcDbEntity
8
0
100
AcDbCircle
10
30.310889132455344
20
17.500000000000007
30
0
40
3.125
210
0
220
0
230
1
0
CIRCLE
5
103
100
AcDbEntity
8
0
100
AcDbCircle
10
0
20
68.424999999999997
30
0
40
3.5000000000000009
210
0
220
0
230
1
0
LWPOLYLINE
5
104
100
AcDbEntity
8
0
100
AcDbPolyline
90
4
70
1
43
0.0
10
79.650000000000006
20
-2.0000000149011621
42
0.99999999999999989
10
62.650000000000006
20
-2.0000000298023224
10
62.650000000000006
20
-18.849999999999966
42
0.99999999999999989
10
79.650000000000006
20
-18.850000000000044
0
CIRCLE
5
105
100
AcDbEntity
8
0
100
AcDbCircle
10
-4.2862637970157365e-15
20
35
30
0
40
3.125
210
0
220
0
230
1
0
CIRCLE
5
106
100
AcDbEntity
8
0
100
AcDbCircle
10
-30.310889132455358
20
17.499999999999993
30
0
40
3.125
210
0
220
0
230
1
0
CIRCLE
5
107
100
AcDbEntity
8
0
100
AcDbCircle
10
0
20
52.024999999999999
30
0
40
8.5000000000000053
210
0
220
0
230
1
0
CIRCLE
5
108
100
AcDbEntity
8
0
100
AcDbCircle
10
-30.310889132455351
20
-17.500000000000004
30
0
40
3.125
210
0
220
0
230
1
0
LWPOLYLINE
5
109
100
AcDbEntity
8
0
100
AcDbPolyline
90
4
70
1
43
0.0
10
-79.650000000000006
20
-18.849999999999987
42
0.99999999999999989
10
-62.650000000000006
20
-18.850000000000023
10
-62.650000000000006
20
-2.0000000149011621
42
0.99999999999999989
10
-79.650000000000006
20
-2.0000000298023202
0
CIRCLE
5
110
100
AcDbEntity
8
0
100
AcDbCircle
10
30.310889132455365
20
-17.499999999999979
30
0
40
3.125
210
0
220
0
230
1
0
CIRCLE
5
111
100
AcDbEntity
8
0
100
AcDbCircle
10
-51
20
-10.200000000000005
30
0
40
7.5
210
0
220
0
230
1
0
ENDSEC
0
SECTION
2
OBJECTS
0
DICTIONARY
5
C
100
AcDbDictionary
3
ACAD_GROUP
350
D
3
ACAD_MLINESTYLE
350
17
0
DICTIONARY
5
D
100
AcDbDictionary
0
DICTIONARY
5
1A
330
C
100
AcDbDictionary
0
DICTIONARY
5
17
100
AcDbDictionary
0
ENDSEC
0
EOF
