<?xml version="1.0" encoding="UTF-8" standalone="no"?>
<!DOCTYPE svg PUBLIC "-//W3C//DTD SVG 1.1//EN" "http://www.w3.org/Graphics/SVG/1.1/DTD/svg11.dtd">
<svg width="100%" height="100%" viewBox="0 0 2363 5197" version="1.1" xmlns="http://www.w3.org/2000/svg" xmlns:xlink="http://www.w3.org/1999/xlink" xml:space="preserve" xmlns:serif="http://www.serif.com/" style="fill-rule:evenodd;clip-rule:evenodd;stroke-linejoin:round;stroke-miterlimit:2;">
    <path d="M2179.37,1538.54C2179.37,1609.23 2121.97,1666.46 2050.97,1666.46L323.415,1666.46C252.548,1666.46 195.123,1609.23 195.123,1538.54L195.123,259.001C195.123,188.301 252.548,131.026 323.415,131.026L2050.97,131.026C2121.97,131.026 2179.37,188.301 2179.37,259.001L2179.37,1538.54Z" style="fill:rgb(236,0,140);"/>
    <path d="M2179.23,4937.92C2179.23,5008.54 2121.82,5065.82 2050.82,5065.82L323.269,5065.82C252.394,5065.82 194.978,5008.54 194.978,4937.92L194.978,3658.35C194.978,3587.67 252.394,3530.39 323.269,3530.39L2050.82,3530.39C2121.82,3530.39 2179.23,3587.67 2179.23,3658.35L2179.23,4937.92Z" style="fill:rgb(236,0,140);"/>
    <path d="M2179.37,3248.91C2179.37,3319.61 2121.97,3376.82 2050.97,3376.82L323.415,3376.82C252.548,3376.82 195.123,3319.61 195.123,3248.91L195.123,1969.36C195.123,1898.67 252.548,1841.39 323.415,1841.39L2050.97,1841.39C2121.97,1841.39 2179.37,1898.67 2179.37,1969.36L2179.37,3248.91Z" style="fill:rgb(236,0,140);"/>
</svg>
