<?xml version="1.0" encoding="UTF-8" standalone="no"?><!DOCTYPE svg PUBLIC "-//W3C//DTD SVG 1.1//EN" "http://www.w3.org/Graphics/SVG/1.1/DTD/svg11.dtd"><svg width="7698px" height="5336px" version="1.1" xmlns="http://www.w3.org/2000/svg" xmlns:xlink="http://www.w3.org/1999/xlink" xml:space="preserve" xmlns:serif="http://www.serif.com/" style="fill-rule:evenodd;clip-rule:evenodd;stroke-linecap:round;stroke-linejoin:round;stroke-miterlimit:1.5;"><g id="_0" serif:id="0" transform="matrix(1,0,0,1,-931.491,5733.1)"><g transform="matrix(1,0,0,1,931.491,-5733.1)"><path d="M7285.93,586.043L7285.93,4750.46C7285.93,4846.57 7207.9,4924.6 7111.79,4924.6L586.56,4924.6C490.454,4924.6 412.427,4846.57 412.427,4750.46L412.427,586.043C412.427,489.936 490.454,411.909 586.56,411.909L7111.79,411.909C7207.9,411.909 7285.93,489.936 7285.93,586.043Z" style="fill:white;fill-opacity:0;stroke:black;stroke-width:5.83px;"/></g><g id="CIRCLE" transform="matrix(2.22222,0,0,2.22222,-1858.47,6287.14)"><path d="M1520.57,-5101.5C1544.03,-5101.5 1563.09,-5120.55 1563.09,-5144.02C1563.09,-5167.49 1544.03,-5186.54 1520.57,-5186.54C1497.1,-5186.54 1478.05,-5167.49 1478.05,-5144.02C1478.05,-5120.55 1497.1,-5101.5 1520.57,-5101.5Z" style="fill:none;stroke:black;stroke-width:2.66px;stroke-miterlimit:2;"/></g><g id="CIRCLE1" serif:id="CIRCLE" transform="matrix(2.22222,0,0,2.22222,-1858.47,8365.85)"><path d="M1520.57,-5101.5C1544.03,-5101.5 1563.09,-5120.55 1563.09,-5144.02C1563.09,-5167.49 1544.03,-5186.54 1520.57,-5186.54C1497.1,-5186.54 1478.05,-5167.49 1478.05,-5144.02C1478.05,-5120.55 1497.1,-5101.5 1520.57,-5101.5Z" style="fill:none;stroke:black;stroke-width:2.66px;stroke-miterlimit:2;"/></g><g id="CIRCLE2" serif:id="CIRCLE" transform="matrix(2.22222,0,0,2.22222,-1858.47,10444.6)"><path d="M1520.57,-5101.5C1544.03,-5101.5 1563.09,-5120.55 1563.09,-5144.02C1563.09,-5167.49 1544.03,-5186.54 1520.57,-5186.54C1497.1,-5186.54 1478.05,-5167.49 1478.05,-5144.02C1478.05,-5120.55 1497.1,-5101.5 1520.57,-5101.5Z" style="fill:none;stroke:black;stroke-width:2.66px;stroke-miterlimit:2;"/></g><g id="CIRCLE3" serif:id="CIRCLE" transform="matrix(2.22222,0,0,2.22222,1401.37,10444.6)"><path d="M1520.57,-5101.5C1544.03,-5101.5 1563.09,-5120.55 1563.09,-5144.02C1563.09,-5167.49 1544.03,-5186.54 1520.57,-5186.54C1497.1,-5186.54 1478.05,-5167.49 1478.05,-5144.02C1478.05,-5120.55 1497.1,-5101.5 1520.57,-5101.5Z" style="fill:none;stroke:black;stroke-width:2.66px;stroke-miterlimit:2;"/></g><g id="CIRCLE4" serif:id="CIRCLE" transform="matrix(2.22222,0,0,2.22222,4661.22,8365.88)"><path d="M1520.57,-5101.5C1544.03,-5101.5 1563.09,-5120.55 1563.09,-5144.02C1563.09,-5167.49 1544.03,-5186.54 1520.57,-5186.54C1497.1,-5186.54 1478.05,-5167.49 1478.05,-5144.02C1478.05,-5120.55 1497.1,-5101.5 1520.57,-5101.5Z" style="fill:none;stroke:black;stroke-width:2.66px;stroke-miterlimit:2;"/></g><g id="CIRCLE5" serif:id="CIRCLE" transform="matrix(2.22222,0,0,2.22222,4661.22,6287.14)"><path d="M1520.57,-5101.5C1544.03,-5101.5 1563.09,-5120.55 1563.09,-5144.02C1563.09,-5167.49 1544.03,-5186.54 1520.57,-5186.54C1497.1,-5186.54 1478.05,-5167.49 1478.05,-5144.02C1478.05,-5120.55 1497.1,-5101.5 1520.57,-5101.5Z" style="fill:none;stroke:black;stroke-width:2.66px;stroke-miterlimit:2;"/></g><g id="CIRCLE6" serif:id="CIRCLE" transform="matrix(2.22222,0,0,2.22222,4661.22,10444.6)"><path d="M1520.57,-5101.5C1544.03,-5101.5 1563.09,-5120.55 1563.09,-5144.02C1563.09,-5167.49 1544.03,-5186.54 1520.57,-5186.54C1497.1,-5186.54 1478.05,-5167.49 1478.05,-5144.02C1478.05,-5120.55 1497.1,-5101.5 1520.57,-5101.5Z" style="fill:none;stroke:black;stroke-width:2.66px;stroke-miterlimit:2;"/></g><g id="CIRCLE7" serif:id="CIRCLE" transform="matrix(2.22222,0,0,2.22222,928.933,6287.14)"><path d="M1520.57,-5101.5C1544.03,-5101.5 1563.09,-5120.55 1563.09,-5144.02C1563.09,-5167.49 1544.03,-5186.54 1520.57,-5186.54C1497.1,-5186.54 1478.05,-5167.49 1478.05,-5144.02C1478.05,-5120.55 1497.1,-5101.5 1520.57,-5101.5Z" style="fill:none;stroke:black;stroke-width:2.66px;stroke-miterlimit:2;"/></g><g id="CIRCLE8" serif:id="CIRCLE" transform="matrix(2.22222,0,0,2.22222,1873.81,6287.14)"><path d="M1520.57,-5101.5C1544.03,-5101.5 1563.09,-5120.55 1563.09,-5144.02C1563.09,-5167.49 1544.03,-5186.54 1520.57,-5186.54C1497.1,-5186.54 1478.05,-5167.49 1478.05,-5144.02C1478.05,-5120.55 1497.1,-5101.5 1520.57,-5101.5Z" style="fill:none;stroke:black;stroke-width:2.66px;stroke-miterlimit:2;"/></g><g id="CIRCLE9" serif:id="CIRCLE" transform="matrix(1.38889,0,0,1.38889,2667.33,2144.55)"><path d="M1520.57,-5101.5C1544.03,-5101.5 1563.09,-5120.55 1563.09,-5144.02C1563.09,-5167.49 1544.03,-5186.54 1520.57,-5186.54C1497.1,-5186.54 1478.05,-5167.49 1478.05,-5144.02C1478.05,-5120.55 1497.1,-5101.5 1520.57,-5101.5Z" style="fill:none;stroke:black;stroke-width:4.25px;stroke-miterlimit:2;"/></g></g></svg>