<?xml version="1.0" encoding="UTF-8" standalone="no"?><!DOCTYPE svg PUBLIC "-//W3C//DTD SVG 1.1//EN" "http://www.w3.org/Graphics/SVG/1.1/DTD/svg11.dtd"><svg width="5099px" height="3423px" version="1.1" xmlns="http://www.w3.org/2000/svg" xmlns:xlink="http://www.w3.org/1999/xlink" xml:space="preserve" xmlns:serif="http://www.serif.com/" style="fill-rule:evenodd;clip-rule:evenodd;stroke-linecap:round;stroke-linejoin:round;stroke-miterlimit:1.5;"><path d="M4840.51,585.832L4840.51,2836.36C4840.51,3017.11 4693.76,3163.85 4513.01,3163.85L585.832,3163.85C405.084,3163.85 258.34,3017.11 258.34,2836.36L258.34,585.832C258.34,405.084 405.084,258.34 585.832,258.34L4513.01,258.34C4693.76,258.34 4840.51,405.084 4840.51,585.832Z" style="fill:white;fill-opacity:0;stroke:black;stroke-width:5.83px;"/><g id="_0" serif:id="0" transform="matrix(1,0,0,1,-1538.86,4295.65)"><g id="CIRCLE" transform="matrix(2.28571,0,0,2.28571,-2585.65,4917.48)"><path d="M2011.06,-3783.37C2033.88,-3783.37 2052.4,-3801.89 2052.4,-3824.71C2052.4,-3847.52 2033.88,-3866.05 2011.06,-3866.05C1988.24,-3866.05 1969.72,-3847.52 1969.72,-3824.71C1969.72,-3801.89 1988.24,-3783.37 2011.06,-3783.37Z" style="fill:none;stroke:black;stroke-width:2.58px;stroke-miterlimit:2;"/></g><g id="CIRCLE1" serif:id="CIRCLE" transform="matrix(2.28571,0,0,2.28571,-2585.65,7400.16)"><path d="M2011.06,-3783.37C2033.88,-3783.37 2052.4,-3801.89 2052.4,-3824.71C2052.4,-3847.52 2033.88,-3866.05 2011.06,-3866.05C1988.24,-3866.05 1969.72,-3847.52 1969.72,-3824.71C1969.72,-3801.89 1988.24,-3783.37 2011.06,-3783.37Z" style="fill:none;stroke:black;stroke-width:2.58px;stroke-miterlimit:2;"/></g><g id="CIRCLE2" serif:id="CIRCLE" transform="matrix(2.28571,0,0,2.28571,-625.018,7400.16)"><path d="M2011.06,-3783.37C2033.88,-3783.37 2052.4,-3801.89 2052.4,-3824.71C2052.4,-3847.52 2033.88,-3866.05 2011.06,-3866.05C1988.24,-3866.05 1969.72,-3847.52 1969.72,-3824.71C1969.72,-3801.89 1988.24,-3783.37 2011.06,-3783.37Z" style="fill:none;stroke:black;stroke-width:2.58px;stroke-miterlimit:2;"/></g><g id="CIRCLE3" serif:id="CIRCLE" transform="matrix(2.28571,0,0,2.28571,1571.83,7397.8)"><path d="M2011.06,-3783.37C2033.88,-3783.37 2052.4,-3801.89 2052.4,-3824.71C2052.4,-3847.52 2033.88,-3866.05 2011.06,-3866.05C1988.24,-3866.05 1969.72,-3847.52 1969.72,-3824.71C1969.72,-3801.89 1988.24,-3783.37 2011.06,-3783.37Z" style="fill:none;stroke:black;stroke-width:2.58px;stroke-miterlimit:2;"/></g><g id="CIRCLE4" serif:id="CIRCLE" transform="matrix(2.28571,0,0,2.28571,1571.83,4917.48)"><path d="M2011.06,-3783.37C2033.88,-3783.37 2052.4,-3801.89 2052.4,-3824.71C2052.4,-3847.52 2033.88,-3866.05 2011.06,-3866.05C1988.24,-3866.05 1969.72,-3847.52 1969.72,-3824.71C1969.72,-3801.89 1988.24,-3783.37 2011.06,-3783.37Z" style="fill:none;stroke:black;stroke-width:2.58px;stroke-miterlimit:2;"/></g><g id="CIRCLE5" serif:id="CIRCLE" transform="matrix(2.28571,0,0,2.28571,-237.616,4917.48)"><path d="M2011.06,-3783.37C2033.88,-3783.37 2052.4,-3801.89 2052.4,-3824.71C2052.4,-3847.52 2033.88,-3866.05 2011.06,-3866.05C1988.24,-3866.05 1969.72,-3847.52 1969.72,-3824.71C1969.72,-3801.89 1988.24,-3783.37 2011.06,-3783.37Z" style="fill:none;stroke:black;stroke-width:2.58px;stroke-miterlimit:2;"/></g><g id="CIRCLE6" serif:id="CIRCLE" transform="matrix(1.42857,0,0,1.42857,3150.32,2062)"><path d="M2011.06,-3783.37C2033.88,-3783.37 2052.4,-3801.89 2052.4,-3824.71C2052.4,-3847.52 2033.88,-3866.05 2011.06,-3866.05C1988.24,-3866.05 1969.72,-3847.52 1969.72,-3824.71C1969.72,-3801.89 1988.24,-3783.37 2011.06,-3783.37Z" style="fill:none;stroke:black;stroke-width:4.13px;stroke-miterlimit:2;"/></g></g></svg>